<?xml version="1.0" standalone="no"?>
<!DOCTYPE svg PUBLIC "-//W3C//DTD SVG 20010904//EN"
 "http://www.w3.org/TR/2001/REC-SVG-20010904/DTD/svg10.dtd">
<svg version="1.0" xmlns="http://www.w3.org/2000/svg"
 width="300.000000pt" height="300.000000pt" viewBox="0 0 300.000000 300.000000"
 preserveAspectRatio="xMidYMid meet">
<metadata>
Created by potrace 1.10, written by Peter Selinger 2001-2011
</metadata>
<g transform="translate(0.000000,300.000000) scale(0.100000,-0.100000)"
fill="#000000" stroke="none">
<path d="M622 1880 c-36 -8 -60 -26 -50 -36 4 -3 15 -1 26 5 26 14 107 14 133
0 11 -6 25 -8 32 -6 13 5 -42 31 -83 39 -14 3 -40 2 -58 -2z"/>
<path d="M646 1805 c-16 -12 -18 -17 -7 -28 11 -9 14 -9 18 1 4 10 8 10 19 1
17 -14 21 -11 26 16 4 25 -29 31 -56 10z"/>
<path d="M792 1786 c-12 -33 -15 -34 -57 -33 -26 1 -49 -4 -57 -12 -11 -11 -8
-12 16 -7 16 4 32 3 35 -2 3 -6 28 -8 55 -5 47 6 48 6 25 20 l-24 13 25 -2
c14 -2 30 -13 37 -28 12 -24 13 -23 13 17 0 32 -5 46 -22 57 -30 22 -32 21
-46 -18z"/>
<path d="M544 1771 c-21 -16 -82 -72 -134 -126 -101 -102 -163 -142 -257 -165
-29 -6 -51 -16 -48 -20 3 -5 34 -12 70 -15 108 -12 154 18 265 175 38 54 90
116 116 139 54 47 46 55 -12 12z"/>
<path d="M537 1718 c-19 -24 -57 -77 -84 -118 -28 -41 -65 -88 -82 -104 -33
-31 -28 -46 15 -46 31 0 58 36 100 130 20 47 47 101 59 120 34 55 36 60 31 60
-2 0 -20 -19 -39 -42z"/>
<path d="M1240 1727 c-41 -18 -99 -49 -129 -69 l-54 -37 -16 32 c-9 17 -27 38
-41 45 -30 16 -115 10 -178 -12 l-42 -15 6 23 c5 23 4 23 -44 15 -51 -8 -118
-36 -109 -46 3 -2 16 1 29 8 21 11 22 11 9 -4 -15 -19 -1 -23 17 -5 9 9 9 6 0
-14 -7 -14 -26 -33 -43 -42 -16 -9 -44 -29 -60 -44 -17 -15 -26 -24 -22 -20 5
3 18 -3 29 -14 19 -19 21 -19 39 -2 17 15 24 16 59 5 43 -13 48 -25 25 -55
-19 -26 -19 -56 0 -56 8 0 15 -4 15 -10 0 -5 -11 -10 -24 -10 -37 0 -46 53
-15 86 l23 24 -25 -2 c-15 -2 -23 2 -21 10 1 6 -2 12 -8 12 -5 0 -10 -11 -10
-24 0 -27 -26 -59 -41 -51 -5 4 -19 -1 -31 -9 -28 -20 -8 -21 39 -1 19 8 36
15 38 15 1 0 2 -14 2 -30 0 -30 -1 -31 -46 -29 -25 1 -53 0 -61 -2 -10 -3 -14
2 -12 14 2 9 -2 17 -8 17 -5 0 -10 -7 -10 -15 0 -10 -10 -15 -31 -15 -28 0
-106 -15 -139 -27 -8 -3 20 -12 63 -18 44 -8 110 -28 155 -49 96 -44 145 -55
248 -56 109 0 232 22 367 68 103 34 109 37 72 39 -83 6 -104 13 -108 36 -4 22
-4 22 -6 -1 -2 -37 -24 -20 -38 28 -7 23 -16 46 -19 49 -8 7 1 -44 11 -71 6
-16 1 -17 -56 -12 -81 9 -104 28 -90 79 10 38 50 99 59 91 3 -3 -8 -25 -23
-48 -17 -26 -21 -37 -11 -28 10 8 32 38 48 67 40 72 109 116 308 201 21 9 22
11 5 11 -11 1 -54 -14 -95 -32z m-247 -58 c10 -6 22 -22 28 -36 8 -23 4 -31
-39 -77 -64 -68 -80 -107 -58 -141 16 -24 15 -25 -3 -25 -34 0 -38 59 -7 104
28 41 24 65 -14 89 -11 6 -20 17 -20 24 0 7 -5 13 -11 13 -5 0 -7 -4 -4 -10 9
-14 -8 -13 -23 2 -15 15 -16 3 -1 -24 8 -15 17 -18 36 -13 27 6 27 5 11 -92
-1 -6 -7 -9 -15 -6 -7 3 -10 10 -6 16 3 6 1 7 -6 3 -6 -4 -18 -3 -25 3 -16 14
-61 149 -53 158 4 4 33 12 65 19 58 13 112 10 145 -7z m-288 -28 c-3 -5 3 -12
13 -15 10 -3 29 -24 43 -47 13 -22 34 -53 47 -69 12 -15 22 -33 22 -38 0 -11
-38 -28 -52 -24 -5 1 -8 -9 -8 -23 0 -35 -30 -33 -32 3 -2 34 -1 42 8 70 5 19
1 24 -32 38 -20 9 -47 14 -59 11 -12 -2 -30 2 -39 9 -15 11 -11 15 33 39 28
15 50 30 49 34 -1 12 2 21 8 21 3 0 3 -4 -1 -9z m179 -241 c-9 -9 -89 2 -96
13 -10 16 0 24 47 40 l40 14 7 -31 c3 -17 4 -33 2 -36z m74 -27 c-15 -2 -42
-2 -60 0 -18 2 -6 4 27 4 33 0 48 -2 33 -4z m-8 -17 c80 -3 158 -9 174 -14 28
-8 26 -9 -35 -25 -147 -39 -259 -50 -371 -36 -62 8 -158 41 -158 55 0 3 26 3
58 0 31 -3 89 -2 127 3 l70 9 -75 0 c-41 0 -100 2 -130 3 -44 2 -37 4 35 8 50
3 106 5 125 4 19 -1 100 -5 180 -7z"/>
<path d="M949 1337 c5 -5 28 -11 52 -14 30 -4 41 -2 34 5 -5 5 -29 12 -52 14
-24 2 -39 0 -34 -5z"/>
<path d="M1353 1737 c-3 -5 4 -11 16 -14 20 -5 21 -11 21 -169 0 -160 -1 -164
-21 -164 -11 0 -19 -5 -17 -11 5 -16 158 -17 158 -1 0 6 -9 12 -20 12 -18 0
-20 7 -20 80 0 45 4 80 10 80 5 0 33 -34 61 -76 39 -59 48 -78 38 -85 -7 -4
-11 -10 -9 -13 3 -2 71 -6 153 -8 108 -2 147 0 147 9 0 6 -8 13 -17 15 -15 3
-17 16 -14 106 1 56 -1 102 -6 102 -16 0 -103 -32 -103 -37 0 -3 7 -11 15 -17
11 -8 16 -32 18 -81 l2 -70 -35 -3 c-34 -3 -38 1 -104 89 -38 51 -71 99 -73
108 -5 20 99 128 128 133 43 7 11 22 -48 23 -63 2 -78 -6 -46 -23 15 -9 10
-19 -40 -81 -32 -39 -62 -71 -67 -71 -6 0 -10 34 -10 75 0 68 2 75 20 75 11 0
20 6 20 13 0 9 -20 13 -76 12 -42 0 -78 -4 -81 -8z m88 -141 c5 3 9 -11 9 -30
0 -20 -4 -36 -9 -36 -6 0 -12 -24 -14 -52 -2 -30 -4 -11 -4 42 -1 52 1 89 4
82 2 -6 9 -10 14 -6z"/>
<path d="M1746 1701 c-3 -5 3 -11 14 -14 20 -5 29 -37 10 -37 -5 0 -10 5 -10
10 0 6 -7 10 -15 10 -19 0 -19 -14 1 -34 21 -21 47 -20 67 2 21 22 22 43 3 36
-7 -3 -16 2 -20 11 -3 9 -2 13 4 10 6 -3 10 -1 10 4 0 13 -57 15 -64 2z"/>
<path d="M1053 1684 c-3 -8 -1 -20 6 -27 14 -14 47 15 37 32 -10 16 -36 13
-43 -5z"/>
<path d="M1960 1635 c-14 -15 -37 -34 -52 -43 -33 -19 -36 -32 -8 -32 19 0 20
-7 20 -90 0 -87 1 -91 25 -102 17 -8 37 -8 62 -2 45 11 57 34 16 31 l-28 -2
-3 83 -3 82 36 0 c24 0 35 4 35 15 0 10 -10 15 -34 15 -33 0 -35 2 -38 36 l-3
36 -25 -27z"/>
<path d="M2133 1581 c-35 -22 -63 -67 -63 -101 0 -12 7 -37 16 -56 51 -107
218 -72 231 49 5 40 2 48 -29 82 -43 47 -105 58 -155 26z m73 -9 c35 -23 44
-98 20 -157 -29 -68 -76 -27 -76 65 0 34 6 64 16 78 16 24 23 26 40 14z"/>
<path d="M2330 1583 c0 -7 6 -13 13 -13 8 0 35 -47 62 -105 26 -58 53 -105 59
-105 6 1 33 48 61 106 45 96 51 105 75 102 24 -3 25 -6 30 -85 6 -94 22 -123
69 -123 15 0 40 9 55 21 l26 20 0 -21 c0 -19 4 -21 33 -15 54 11 67 16 67 26
0 5 -9 9 -21 9 -19 0 -20 5 -17 95 l3 95 -52 0 c-51 0 -69 -12 -38 -24 12 -4
15 -23 15 -81 0 -71 -1 -76 -26 -87 -36 -17 -44 0 -44 105 l0 87 -100 0 c-60
0 -100 -4 -100 -10 0 -5 7 -10 16 -10 18 0 15 -20 -11 -84 -19 -44 -26 -40
-49 28 -19 60 -19 56 -1 56 8 0 15 4 15 9 0 5 -32 11 -70 13 -51 2 -70 0 -70
-9z"/>
<path d="M1057 1535 c3 -10 1 -15 -7 -13 -7 2 -15 -3 -17 -9 -3 -7 0 -13 6
-13 7 0 9 -10 5 -24 -3 -14 -1 -33 5 -43 9 -15 10 -13 11 15 0 29 3 33 22 30
16 -2 26 -14 34 -43 7 -22 13 -34 13 -27 1 6 7 12 15 12 8 0 17 -6 19 -12 3
-7 6 2 6 20 1 30 -1 32 -24 26 -21 -5 -25 -3 -25 16 0 13 -8 24 -20 27 -11 3
-17 9 -14 14 3 5 10 7 15 4 5 -4 9 -1 9 5 0 6 -12 15 -26 20 -33 13 -34 13
-27 -5z"/>
<path d="M295 1350 c3 -5 16 -10 28 -10 35 -1 127 -42 196 -90 122 -82 213
-101 332 -71 81 21 155 49 148 56 -3 2 -45 0 -95 -5 -131 -12 -220 1 -339 50
-55 23 -136 50 -180 60 -92 23 -98 23 -90 10z"/>
<path d="M325 1317 c11 -7 62 -54 113 -104 79 -80 97 -93 126 -93 36 0 96 18
96 29 0 3 -19 12 -42 19 -23 7 -80 38 -127 69 -78 50 -162 94 -179 92 -4 0 2
-6 13 -12z"/>
<path d="M1352 1308 c-16 -16 -15 -95 1 -105 17 -11 1489 -12 1504 -1 21 17
26 67 9 93 l-16 25 -743 0 c-565 0 -746 -3 -755 -12z m734 -54 c0 -19 -2 -31
-6 -27 -11 12 -20 59 -13 67 11 10 17 -3 19 -40z m34 11 c0 -19 -5 -35 -10
-35 -6 0 -10 16 -8 35 1 19 6 35 10 35 4 0 8 -16 8 -35z m206 13 c-3 -13 -6
-31 -6 -41 0 -10 -4 -15 -10 -12 -11 7 -14 58 -3 68 14 15 25 6 19 -15z m-690
0 c4 -6 -1 -15 -10 -20 -9 -5 -16 -16 -16 -23 0 -8 -5 -15 -11 -15 -6 0 -9 8
-7 18 4 15 0 18 -25 17 -16 -1 -34 -10 -39 -19 -7 -12 -13 -14 -22 -7 -6 5
-17 6 -24 2 -16 -9 -93 -4 -105 8 -5 5 -4 18 2 30 11 19 20 21 131 20 73 0
122 -4 126 -11z m82 -7 c3 -10 -2 -11 -18 -6 -16 5 -21 4 -18 -6 3 -8 13 -12
23 -11 16 3 17 1 6 -12 -7 -8 -19 -12 -27 -9 -14 5 -19 44 -7 57 11 10 36 3
41 -13z m60 -10 c4 -26 -13 -42 -35 -34 -14 5 -18 45 -6 57 14 14 38 0 41 -23z
m70 -3 c2 -16 -1 -28 -7 -28 -6 0 -12 10 -12 23 -1 20 -2 20 -6 2 -9 -39 -23
-40 -23 -1 0 33 3 37 23 34 16 -2 23 -11 25 -30z m65 11 c6 -10 7 -24 2 -35
-8 -17 -9 -16 -13 9 -4 31 -22 37 -22 7 0 -11 -5 -20 -10 -20 -8 0 -9 27 -1
58 2 9 35 -5 44 -19z m65 -9 c4 -27 -17 -44 -35 -28 -16 13 -17 30 -1 46 17
17 32 10 36 -18z m70 11 c3 -10 0 -12 -12 -8 -10 4 -16 1 -16 -8 0 -9 6 -12
15 -9 8 4 15 2 15 -4 0 -15 -26 -22 -39 -9 -12 12 -15 40 -4 51 11 10 36 3 41
-13z m140 -13 c2 -16 -1 -28 -7 -28 -6 0 -12 10 -12 23 l-2 22 -4 -22 c-6 -34
-23 -28 -23 8 0 26 3 30 23 27 16 -2 23 -11 25 -30z m67 -8 c0 -28 -4 -36 -21
-38 -17 -2 -23 3 -27 25 -6 32 9 55 32 51 11 -2 16 -14 16 -38z m133 7 c3 -23
0 -27 -23 -27 -21 0 -26 4 -23 23 6 44 41 47 46 4z m57 23 c3 -5 1 -10 -4 -10
-6 0 -11 -9 -11 -20 0 -11 -4 -20 -10 -20 -5 0 -10 14 -10 30 0 30 21 42 35
20z m81 -31 c2 -27 1 -28 -3 -6 -5 33 -22 36 -24 5 l-2 -23 -4 23 c-6 31 -21
28 -26 -5 -3 -23 -4 -21 -6 9 -1 37 0 38 32 34 29 -3 32 -7 33 -37z m72 12 c4
-26 -13 -42 -35 -34 -14 5 -18 45 -6 57 14 14 38 0 41 -23z m46 2 c-11 -45
-24 -51 -24 -10 0 26 4 37 15 37 12 0 14 -7 9 -27z m64 -2 c2 -13 -2 -27 -9
-31 -20 -13 -39 0 -35 23 3 12 5 26 5 30 2 19 36 0 39 -22z m118 15 c29 -29
10 -46 -52 -46 -36 0 -51 17 -40 45 7 19 72 20 92 1z"/>
</g>
</svg>
