<?xml version="1.0" standalone="no"?>
<!DOCTYPE svg PUBLIC "-//W3C//DTD SVG 20010904//EN"
 "http://www.w3.org/TR/2001/REC-SVG-20010904/DTD/svg10.dtd">
<svg version="1.0" xmlns="http://www.w3.org/2000/svg"
 width="200.000000pt" height="200.000000pt" viewBox="0 0 200.000000 200.000000"
 preserveAspectRatio="xMidYMid meet">
<metadata>
Created by potrace 1.10, written by Peter Selinger 2001-2011
</metadata>
<g transform="translate(0.000000,200.000000) scale(0.100000,-0.100000)"
fill="#000000" stroke="none">
<path d="M50 1073 l0 -153 58 0 c57 -1 57 -1 78 -43 29 -59 89 -84 171 -71 43
7 59 14 61 27 3 15 -1 17 -25 10 -50 -13 -113 -7 -140 13 -36 27 -52 55 -35
61 17 7 15 33 -3 33 -20 0 -19 24 2 67 28 61 112 86 189 56 9 -3 14 2 14 15 0
17 -8 22 -44 27 -88 14 -167 -22 -197 -89 -10 -23 -19 -49 -19 -58 0 -14 -8
-18 -35 -18 l-35 0 0 55 0 55 34 0 c21 0 36 6 40 15 4 12 -3 15 -34 15 l-40 0
0 50 0 50 65 0 c55 0 65 3 65 18 0 15 -11 17 -85 17 l-85 0 0 -152z"/>
<path d="M280 996 c0 -44 4 -76 10 -76 6 0 10 30 10 69 0 39 -4 73 -10 76 -6
4 -10 -22 -10 -69z"/>
<path d="M400 1045 c-1 -5 -2 -13 -1 -17 0 -5 -6 -8 -15 -8 -13 0 -14 -2 -1
-14 8 -8 12 -26 10 -39 -5 -26 22 -61 39 -51 7 4 4 10 -6 16 -22 12 -21 64 2
77 15 9 15 10 0 11 -9 0 -19 8 -21 18 -3 9 -6 13 -7 7z"/>
<path d="M335 970 c0 -28 4 -50 10 -50 12 0 11 93 -1 97 -5 2 -9 -19 -9 -47z"/>
<path d="M472 1008 c-19 -19 -14 -65 9 -81 13 -9 16 -17 10 -22 -16 -10 -13
-61 5 -79 18 -19 65 -21 82 -4 7 7 12 26 12 43 0 39 -33 70 -74 70 -16 0 -31
6 -33 13 -3 8 7 12 31 12 41 0 47 7 35 38 -9 25 -56 31 -77 10z m58 -13 c11
-13 8 -15 -19 -15 -30 0 -39 9 -24 23 11 11 30 8 43 -8z m40 -100 c26 -31 -16
-91 -50 -70 -37 23 -27 85 13 85 14 0 30 -7 37 -15z"/>
<path d="M698 884 l-3 -48 -28 42 c-15 23 -31 42 -36 42 -11 0 -19 -100 -9
-106 4 -3 8 17 10 43 l3 48 30 -47 c17 -27 35 -46 40 -45 14 5 19 97 6 110 -6
6 -11 -6 -13 -39z"/>
<path d="M758 919 c-27 -15 -22 -37 13 -54 36 -19 33 -41 -5 -38 -14 1 -26 -3
-26 -8 0 -6 15 -9 33 -7 43 4 51 42 13 60 -34 15 -34 38 0 38 14 0 23 4 19 10
-8 13 -25 12 -47 -1z"/>
<path d="M870 923 c-22 -8 -40 -34 -40 -58 0 -51 75 -74 104 -33 22 31 20 45
-9 73 -25 26 -29 27 -55 18z m48 -25 c34 -34 -6 -90 -48 -68 -35 19 -20 80 20
80 9 0 21 -5 28 -12z"/>
<path d="M1060 918 c0 -4 10 -8 21 -8 20 0 21 -4 17 -45 -3 -25 -2 -48 3 -51
5 -3 9 18 9 45 0 39 4 51 15 51 8 0 15 3 15 8 0 4 -18 7 -40 7 -22 1 -40 -3
-40 -7z"/>
<path d="M1620 918 c0 -4 9 -8 19 -8 17 0 19 -6 16 -45 -3 -24 0 -47 5 -50 6
-4 10 14 10 44 0 46 2 51 22 51 12 0 19 3 15 6 -9 10 -87 11 -87 2z"/>
<path d="M1725 922 c-3 -3 -5 -29 -5 -59 l0 -53 33 0 c20 0 41 8 50 18 20 22
22 65 5 80 -15 11 -75 21 -83 14z m75 -32 c11 -21 -2 -60 -20 -60 -4 0 -15 -3
-24 -6 -13 -5 -16 2 -16 40 0 42 2 46 25 46 14 0 29 -8 35 -20z"/>
<path d="M971 863 c1 -32 4 -46 6 -30 2 15 8 27 13 27 11 0 37 -26 43 -42 2
-7 7 -10 11 -6 4 3 0 18 -9 32 -12 17 -13 26 -5 26 6 0 10 10 8 23 -2 17 -11
23 -35 25 l-33 3 1 -58z m54 27 c0 -8 -10 -16 -22 -18 -18 -3 -23 2 -23 18 0
16 5 21 23 18 12 -2 22 -10 22 -18z"/>
<path d="M1155 865 c0 -42 3 -55 15 -55 12 0 15 13 15 55 0 42 -3 55 -15 55
-12 0 -15 -13 -15 -55z"/>
<path d="M1210 877 c0 -47 13 -67 45 -67 12 0 26 5 33 12 14 14 16 98 2 98 -5
0 -10 -20 -10 -45 0 -33 -5 -47 -16 -52 -25 -9 -46 25 -39 64 3 19 1 33 -5 33
-6 0 -10 -19 -10 -43z"/>
<path d="M1332 863 l1 -58 6 45 7 45 18 -42 c10 -24 22 -43 26 -43 4 0 16 19
26 43 l18 42 7 -45 6 -45 1 58 c2 65 -11 74 -32 22 -8 -19 -19 -35 -24 -35 -4
0 -16 16 -25 35 -25 51 -37 43 -35 -22z"/>
<path d="M1550 865 l0 -55 36 0 c22 0 33 4 29 10 -4 6 -15 8 -26 5 -17 -6 -19
-1 -19 44 0 28 -4 51 -10 51 -5 0 -10 -25 -10 -55z"/>
</g>
</svg>
