<?xml version="1.0" standalone="no"?>
<!DOCTYPE svg PUBLIC "-//W3C//DTD SVG 20010904//EN"
 "http://www.w3.org/TR/2001/REC-SVG-20010904/DTD/svg10.dtd">
<svg version="1.0" xmlns="http://www.w3.org/2000/svg"
 width="200.000000pt" height="200.000000pt" viewBox="0 0 200.000000 200.000000"
 preserveAspectRatio="xMidYMid meet">
<metadata>
Created by potrace 1.10, written by Peter Selinger 2001-2011
</metadata>
<g transform="translate(0.000000,200.000000) scale(0.100000,-0.100000)"
fill="#000000" stroke="none">
<path d="M1262 1867 c-6 -7 -17 -30 -26 -52 -15 -35 -91 -161 -106 -175 -3 -3
-18 -23 -35 -45 -40 -55 -45 -61 -85 -105 -55 -61 -133 -151 -155 -179 -11
-14 -25 -32 -32 -39 -7 -7 -13 -18 -13 -23 0 -6 -4 -8 -9 -5 -5 4 -11 2 -13
-3 -6 -16 -212 -233 -232 -243 -21 -11 -21 -7 19 202 62 327 53 451 -35 503
-59 35 -227 16 -325 -37 -113 -61 -215 -147 -215 -181 0 -19 6 -16 53 27 115
108 228 162 362 175 121 11 166 -35 164 -169 -1 -83 -2 -92 -54 -396 -21 -122
-35 -226 -30 -230 14 -14 439 447 619 672 118 148 168 232 160 269 -8 37 6 34
35 -8 29 -44 25 -65 -33 -141 -50 -66 -348 -395 -531 -584 -164 -170 -228
-245 -267 -314 -27 -47 -41 -61 -73 -73 -92 -34 -89 -39 -45 88 47 138 82 294
111 493 23 163 20 232 -12 285 -48 79 -170 78 -288 -3 -83 -58 -178 -142 -169
-151 3 -4 17 -1 29 6 40 21 118 86 112 93 -4 3 -1 6 6 6 7 0 30 13 50 29 66
53 197 52 230 -1 47 -75 -8 -475 -100 -737 -34 -98 -36 -122 -11 -145 18 -16
54 -17 68 -3 4 4 17 7 29 7 20 0 84 56 86 75 0 6 16 30 35 55 18 25 42 56 51
70 10 14 29 37 43 52 104 110 140 145 145 140 3 -3 5 0 5 6 0 5 26 37 58 71
68 72 157 167 194 209 14 17 29 28 32 25 3 -4 6 -1 6 6 0 6 20 31 44 54 25 23
57 58 73 77 35 44 45 45 73 15 39 -41 93 -26 125 35 24 47 19 79 -15 98 -23
13 -29 22 -25 37 19 65 17 95 -7 133 -26 38 -58 51 -76 29z m106 -243 c7 -47
-78 -102 -94 -60 -6 17 20 72 38 79 26 11 53 2 56 -19z"/>
<path d="M1721 1569 c-30 -6 -101 -65 -101 -83 0 -3 -16 -28 -35 -55 -19 -26
-35 -51 -35 -55 0 -3 -12 -24 -27 -45 -16 -21 -35 -49 -43 -61 -8 -13 -27 -37
-42 -54 -16 -17 -28 -34 -28 -39 0 -14 -107 -114 -174 -164 -49 -36 -66 -43
-95 -41 -32 3 -36 6 -33 28 3 24 57 140 123 263 l31 59 -23 24 c-27 29 -39 30
-81 4 -18 -11 -29 -20 -23 -20 5 0 0 -6 -11 -14 -18 -13 -95 -136 -131 -208
-7 -16 -20 -41 -28 -56 -8 -16 -17 -47 -21 -68 -5 -34 -2 -45 22 -75 39 -47
43 -49 93 -49 42 0 120 18 131 30 3 3 17 11 33 17 21 10 27 10 28 0 3 -26 -4
-41 -60 -135 -32 -53 -60 -102 -62 -107 -2 -6 -33 -59 -69 -118 -36 -59 -69
-115 -75 -125 -96 -170 -135 -216 -199 -233 -23 -6 -49 -20 -60 -31 -18 -19
-18 -20 2 -40 20 -20 24 -21 112 -8 88 13 94 15 134 55 23 24 56 71 73 106 17
35 55 111 83 169 28 57 55 109 60 115 5 6 32 55 59 108 27 54 59 111 71 127
12 17 18 30 14 30 -4 0 4 9 18 19 13 11 52 25 87 31 34 6 95 22 134 36 40 14
81 28 92 31 11 3 28 13 38 21 9 8 17 12 17 8 0 -12 87 42 147 90 89 72 135
129 131 160 -3 26 -4 25 -36 -19 -97 -136 -291 -242 -526 -288 -55 -11 -101
-21 -102 -22 -14 -17 -203 -368 -256 -477 -108 -219 -120 -237 -179 -254 -64
-19 -178 -32 -164 -19 6 6 32 16 59 22 27 7 61 21 76 31 28 20 109 148 285
450 60 102 117 197 127 212 12 18 17 36 13 49 -5 15 -2 22 13 26 13 3 44 43
79 101 32 53 62 103 67 112 5 8 -24 -19 -65 -60 -91 -92 -183 -155 -256 -176
-90 -26 -153 -1 -153 60 0 70 152 335 206 361 56 26 58 17 10 -57 -82 -129
-144 -278 -131 -317 13 -41 85 -31 171 24 120 77 227 198 376 427 68 104 81
118 115 127 79 22 81 15 17 -51 -131 -135 -248 -292 -143 -192 69 66 97 84
129 84 140 0 -32 -281 -242 -395 -62 -34 -74 -26 -15 9 127 74 271 288 217
321 -18 11 -96 -42 -147 -99 -60 -68 -190 -281 -165 -271 9 3 42 8 72 11 160
12 349 102 456 216 56 59 94 108 94 119 0 22 -30 6 -61 -33 -19 -23 -47 -56
-64 -73 -28 -29 -41 -39 -114 -87 -30 -20 -107 -58 -116 -58 -4 0 21 30 54 66
63 69 109 151 116 207 5 38 -26 97 -50 97 -21 0 -19 24 5 45 11 10 28 32 38
50 19 30 19 32 1 54 -21 26 -41 31 -88 20z m-74 -337 c-28 -61 -50 -94 -97
-147 -28 -32 -60 -55 -76 -55 -15 0 -14 3 7 27 13 14 17 23 9 19 -12 -6 -12
-5 1 6 8 7 20 20 25 30 17 30 119 136 127 131 4 -2 6 -7 4 -11z"/>
<path d="M614 812 c-58 -6 -67 -75 -15 -107 25 -15 104 -13 128 3 20 12 25 12
49 -7 14 -11 31 -18 36 -15 13 8 108 11 108 3 0 -3 12 -4 28 -2 15 2 59 5 98
6 85 2 102 13 96 61 -7 60 -11 61 -266 61 -127 1 -245 -1 -262 -3z m-7 -42 c3
-11 9 -20 14 -20 5 0 9 9 9 20 0 11 5 20 11 20 6 0 8 -7 5 -16 -3 -9 -9 -27
-12 -40 -3 -13 -10 -24 -15 -24 -5 0 -9 2 -9 4 0 2 -7 20 -15 40 -10 24 -12
36 -4 36 6 0 13 -9 16 -20z m71 -15 c0 -19 -4 -38 -9 -41 -5 -3 -9 13 -9 35 0
23 4 41 9 41 5 0 9 -16 9 -35z m62 15 c0 -11 -7 -20 -15 -20 -8 0 -15 -9 -15
-20 0 -11 -4 -20 -10 -20 -5 0 -10 18 -10 40 0 36 3 40 25 40 18 0 25 -5 25
-20z m96 -15 c3 -31 -9 -45 -38 -45 -14 0 -18 9 -18 41 0 38 2 40 26 37 22 -2
28 -9 30 -33z m69 25 c4 -6 2 -17 -5 -25 -7 -9 -8 -15 0 -20 12 -7 13 -25 2
-25 -5 0 -14 10 -20 23 l-11 22 0 -22 c-2 -41 -21 -24 -21 17 0 36 3 40 24 40
14 0 28 -5 31 -10z m48 3 c-13 -2 -23 -9 -23 -14 0 -5 10 -10 23 -10 l22 -2
-22 -4 c-28 -5 -30 -23 -3 -23 11 0 20 -4 20 -10 0 -5 -11 -10 -25 -10 -22 0
-25 4 -25 40 0 37 2 40 28 39 23 -2 24 -2 5 -6z m83 -28 c18 -44 18 -51 -2
-34 -12 10 -20 10 -35 1 -22 -14 -23 -10 -7 35 15 42 25 42 44 -2z m44 24 c0
-8 5 -7 15 1 9 7 18 11 20 8 3 -3 -2 -11 -10 -18 -14 -12 -13 -15 6 -37 18
-18 19 -23 7 -23 -9 0 -19 7 -22 17 -6 14 -8 14 -21 -3 -13 -18 -14 -16 -15
24 0 23 5 42 10 42 6 0 10 -5 10 -11z"/>
</g>
</svg>
