<?xml version="1.0" standalone="no"?>
<!DOCTYPE svg PUBLIC "-//W3C//DTD SVG 20010904//EN"
 "http://www.w3.org/TR/2001/REC-SVG-20010904/DTD/svg10.dtd">
<svg version="1.0" xmlns="http://www.w3.org/2000/svg"
 width="300.000000pt" height="266.000000pt" viewBox="0 0 300.000000 266.000000"
 preserveAspectRatio="xMidYMid meet">
<metadata>
Created by potrace 1.10, written by Peter Selinger 2001-2011
</metadata>
<g transform="translate(0.000000,266.000000) scale(0.100000,-0.100000)"
fill="#000000" stroke="none">
<path d="M792 1988 l3 -573 24 -60 c31 -78 112 -158 209 -209 40 -21 139 -62
220 -92 81 -30 159 -63 174 -74 35 -26 50 -25 96 4 20 13 91 43 157 66 291
101 410 193 450 347 12 47 15 153 15 610 l0 553 -675 0 -676 0 3 -572z m667
449 c0 -71 -3 -95 -9 -79 -14 33 -20 27 -9 -10 13 -48 -14 -82 -70 -86 -55 -4
-63 -25 -23 -62 52 -48 55 -114 6 -147 -22 -14 -27 -14 -35 -2 -8 12 -10 12
-18 0 -13 -20 -41 3 -42 33 0 11 -3 15 -6 8 -2 -6 -9 -9 -15 -6 -6 4 -8 -1 -4
-14 4 -12 2 -32 -5 -44 -12 -22 -11 -22 6 -8 14 11 19 12 22 3 3 -7 16 -13 29
-13 17 0 24 -6 24 -20 0 -11 7 -20 15 -20 8 0 15 -4 15 -10 0 -5 -5 -10 -11
-10 -8 0 -8 -4 0 -14 9 -10 9 -16 1 -21 -6 -4 -9 -13 -6 -21 3 -8 -9 -28 -27
-46 -23 -22 -26 -28 -9 -19 12 6 29 22 38 36 19 29 30 115 15 115 -6 0 -11 9
-11 19 0 11 -6 22 -12 24 -7 3 -4 6 7 6 29 1 65 29 76 58 13 34 -5 90 -39 123
l-26 24 43 11 c24 6 52 21 62 34 19 24 19 23 17 -175 l-3 -198 -305 -213
c-168 -118 -312 -218 -320 -222 -13 -8 -15 29 -13 312 2 177 5 330 7 341 3 12
9 15 18 10 9 -5 9 -3 -2 10 -8 10 -15 23 -16 30 -9 61 -7 136 5 136 19 0 72
-53 67 -66 -10 -25 46 -3 72 28 13 15 29 28 34 28 6 0 3 -10 -8 -22 -18 -20
-17 -20 14 2 34 25 41 36 17 26 -8 -3 -15 -1 -15 5 0 6 9 13 19 16 22 6 35 29
21 38 -5 3 -18 0 -28 -6 -27 -17 -56 -4 -49 21 3 13 -1 24 -12 30 -15 8 -17 5
-13 -22 3 -22 1 -29 -7 -23 -7 4 -10 13 -7 20 5 15 -20 55 -36 55 -6 0 -4 -8
5 -18 10 -10 17 -32 17 -49 0 -29 3 -32 40 -38 42 -7 51 -19 24 -29 -26 -10
-46 -7 -65 10 -10 9 -24 14 -31 11 -8 -3 -1 -10 17 -17 34 -14 19 -26 -20 -16
-31 8 -34 45 -5 53 23 6 22 27 -1 29 -8 0 -9 -1 -2 -3 6 -3 1 -14 -13 -29 -32
-31 -49 -31 -29 0 16 24 16 24 -7 19 -23 -4 -23 -4 -3 12 16 13 17 17 6 24
-11 7 -10 11 5 21 16 10 16 11 2 6 -16 -5 -18 2 -18 49 0 43 3 55 19 60 24 7
240 2 235 -6 -4 -7 -65 -23 -78 -20 -16 3 -57 -30 -50 -41 4 -5 0 -14 -7 -19
-10 -6 -8 -9 9 -9 18 0 23 5 20 23 -2 18 2 23 27 25 17 1 39 7 50 12 11 4 34
11 50 13 17 3 39 8 50 12 18 5 17 4 -2 -11 -13 -9 -23 -20 -23 -25 0 -12 37
-11 45 1 3 6 18 10 33 10 15 0 38 7 50 16 12 8 22 11 22 5 0 -5 -4 -13 -10
-16 -5 -3 -10 -10 -10 -16 0 -5 9 0 20 11 12 12 18 25 15 30 -5 8 149 19 168
12 4 -2 7 -49 6 -105z m663 -429 c2 -299 2 -545 1 -546 -1 -2 -148 98 -327
223 l-326 226 0 320 0 319 325 0 324 0 3 -542z m-623 -150 c17 -13 57 -41 88
-63 110 -77 143 -104 133 -110 -5 -3 -30 1 -54 9 -67 23 -342 16 -413 -10 -29
-10 -56 -14 -60 -10 -4 5 -2 11 5 13 6 3 10 9 6 14 -3 5 1 9 10 9 8 0 16 4 18
8 4 11 102 82 112 82 4 0 31 18 59 40 29 22 55 40 58 40 3 0 20 -10 38 -22z
m168 -203 c27 -8 66 -15 88 -15 54 -1 95 -36 95 -82 0 -29 4 -35 38 -46 20 -7
53 -17 72 -21 84 -20 91 -36 20 -45 -34 -5 -60 -2 -86 9 -20 8 -38 14 -39 13
-1 -2 -5 -24 -7 -49 l-5 -46 61 -12 c122 -24 141 -39 69 -54 -37 -8 -66 -6
-110 8 -22 7 -23 5 -23 -59 l0 -67 -37 -16 c-33 -14 -47 -14 -108 -3 -119 22
-163 24 -190 6 -31 -20 -56 -20 -93 1 -28 16 -35 16 -130 -2 -95 -17 -103 -17
-145 -1 l-44 16 2 68 c1 37 0 93 -3 126 l-5 58 -41 -7 c-23 -4 -55 -9 -73 -12
-21 -3 -40 1 -57 13 -29 22 -33 34 -11 34 8 0 15 4 15 9 0 5 26 12 58 15 31 3
68 7 80 8 22 3 24 6 18 51 -5 36 -4 47 7 47 8 0 22 9 32 20 12 13 26 18 44 14
14 -2 55 4 91 15 84 25 343 28 417 6z m-624 -99 c-15 -27 -25 -34 -39 -29 -18
7 -18 18 1 37 17 17 49 11 38 -8z m890 0 c29 -22 20 -37 -13 -18 -16 9 -30 20
-30 25 0 11 23 8 43 -7z m-1025 -148 c2 -5 16 -8 30 -9 27 0 27 0 4 -10 -13
-5 -20 -13 -17 -19 3 -6 -1 -13 -9 -16 -9 -3 -16 -10 -16 -15 0 -13 24 -11 38
3 8 8 42 13 82 14 67 2 70 1 70 -21 0 -17 -9 -26 -31 -34 -43 -15 -105 -14
-121 2 -7 7 -27 18 -44 25 -40 17 -61 78 -45 131 1 5 55 -41 59 -51z m1180 15
c3 -29 -14 -75 -42 -111 -21 -29 -110 -112 -119 -112 -5 0 -21 -9 -36 -19
l-27 -19 -2 26 c-1 21 0 24 8 12 5 -8 10 -10 10 -5 0 6 -4 16 -9 24 -6 9 -5
23 1 37 9 18 18 22 47 20 54 -3 111 22 111 50 0 14 -8 25 -20 29 -11 4 -18 10
-16 14 3 4 -10 8 -27 9 -17 2 -34 7 -38 13 -3 6 -9 10 -13 10 -22 -3 -36 0
-36 9 0 6 15 10 33 8 44 -3 103 10 116 26 6 7 21 13 34 12 17 -1 23 -8 25 -33z
m-1091 -157 c46 6 73 -13 73 -51 0 -17 6 -37 13 -44 10 -10 6 -10 -18 -1 -46
17 -86 45 -125 85 -35 36 -35 36 -6 21 16 -8 44 -13 63 -10z m420 -118 c18
-14 64 -13 105 2 30 11 52 11 125 0 48 -7 92 -16 97 -21 11 -9 -19 -25 -96
-50 -35 -10 -90 -32 -123 -48 l-60 -29 -45 23 c-25 12 -81 35 -125 50 -128 45
-135 58 -37 73 80 12 143 12 159 0z"/>
<path d="M1297 2503 c-12 -20 -9 -61 6 -90 9 -18 17 -40 17 -50 0 -14 2 -15 9
-4 5 8 3 24 -5 40 -7 14 -14 45 -16 69 -3 44 -4 47 -11 35z"/>
<path d="M1090 2465 c-5 -14 -15 -25 -21 -25 -8 0 -6 -7 5 -19 16 -17 16 -19
-6 -24 -21 -6 -21 -7 -5 -25 10 -11 15 -26 11 -36 -9 -25 26 -20 65 8 l33 24
-41 -5 c-43 -6 -52 5 -32 36 8 12 12 12 25 2 13 -11 17 -11 22 2 9 23 -3 36
-27 30 -19 -5 -21 -3 -17 25 5 38 1 41 -12 7z"/>
<path d="M1161 2466 c-14 -8 -19 -16 -13 -20 6 -3 13 0 15 6 4 10 8 9 16 -2
13 -18 26 -7 14 13 -7 13 -12 13 -32 3z"/>
<path d="M1411 2463 c0 -6 -14 -25 -30 -41 -17 -16 -32 -41 -34 -56 -1 -15 -6
-26 -10 -26 -4 0 -11 0 -17 0 -5 0 -10 9 -10 19 0 11 -4 23 -10 26 -6 4 -10
-5 -10 -19 0 -14 5 -26 10 -26 6 0 10 -4 10 -10 0 -5 -9 -10 -20 -10 -17 0
-19 -4 -14 -27 6 -22 4 -25 -9 -20 -10 4 -22 -2 -31 -15 -9 -12 -18 -19 -21
-16 -3 3 8 26 25 51 16 25 30 51 29 58 0 8 -4 4 -9 -8 -11 -28 -52 -54 -98
-64 l-37 -8 35 3 c19 2 44 6 55 10 19 7 19 7 3 -7 -22 -18 -23 -35 -1 -59 10
-12 17 -36 17 -67 1 -35 4 -44 11 -34 9 12 15 10 38 -11 34 -31 62 -33 77 -6
12 23 -4 63 -39 94 -37 33 -18 102 32 119 14 6 17 14 12 44 l-5 38 15 -35 14
-35 -5 37 c-5 31 -2 41 16 56 14 11 20 25 17 37 -2 11 -5 15 -6 8z m-121 -231
c0 -13 14 -41 31 -62 49 -61 26 -86 -38 -40 -30 22 -55 87 -43 110 15 27 50
22 50 -8z"/>
<path d="M993 2433 c-18 -7 -16 -23 2 -23 8 0 15 -5 15 -11 0 -5 5 -7 10 -4 6
3 10 15 10 26 0 18 -12 23 -37 12z"/>
<path d="M1242 2395 c-2 -44 -16 -65 -43 -65 -22 0 -44 -26 -29 -35 5 -3 13 1
16 9 3 9 9 14 14 11 4 -2 17 6 29 19 17 18 21 33 18 62 l-4 39 -1 -40z"/>
<path d="M1427 2412 c-19 -20 -22 -68 -7 -92 6 -10 8 -4 4 21 -4 25 -1 44 11
63 20 30 16 34 -8 8z"/>
<path d="M1186 2405 c-8 -9 -19 -16 -23 -16 -4 0 -10 -3 -13 -6 -3 -4 0 -4 5
0 6 3 17 2 25 -3 12 -7 12 -11 0 -25 -12 -15 -11 -15 13 -4 27 12 43 41 32 59
-9 14 -21 12 -39 -5z"/>
<path d="M1011 2253 c-9 -7 -11 -13 -5 -13 6 0 14 3 18 7 4 4 22 8 39 9 18 1
26 -1 20 -3 -7 -3 -13 -11 -13 -19 0 -8 -5 -14 -11 -14 -5 0 -7 4 -4 10 3 5
-12 0 -34 -12 -23 -12 -39 -24 -36 -26 2 -3 10 0 18 6 7 6 26 9 42 7 17 -2 33
-4 38 -4 10 -1 9 -13 -3 -31 -8 -13 -11 -12 -24 5 -12 15 -15 16 -16 5 0 -18
-58 -53 -72 -44 -11 7 40 40 55 36 4 -1 7 3 7 8 0 14 -4 13 -45 -11 -29 -18
-33 -24 -23 -36 10 -12 9 -14 -3 -13 -20 4 -79 -11 -79 -20 0 -10 81 4 108 19
23 12 23 12 20 -36 l-3 -48 -45 2 c-25 0 -33 -1 -17 -4 16 -2 31 -11 34 -19 7
-20 30 -17 43 5 5 11 10 40 10 65 0 34 5 48 19 55 10 6 21 8 24 5 9 -9 77 -13
77 -4 0 4 -13 10 -30 14 -16 3 -30 10 -30 16 0 6 5 8 11 4 8 -5 8 -1 0 14 -9
17 -7 23 11 36 23 17 58 21 58 9 0 -5 14 -24 30 -43 23 -28 28 -30 23 -13 -3
12 -11 28 -19 34 -8 6 -14 20 -14 31 0 17 -6 20 -44 17 -24 -2 -42 -1 -40 3 8
12 -77 4 -95 -9z"/>
<path d="M968 2235 c-3 -3 -32 -12 -64 -21 -78 -20 -88 -32 -22 -26 36 3 62
12 81 28 16 13 24 24 19 24 -5 0 -11 -2 -14 -5z"/>
<path d="M893 2168 c-5 -7 -13 -21 -16 -30 -4 -10 -15 -18 -26 -18 -10 0 -21
-6 -24 -13 -4 -11 2 -10 29 2 19 9 34 23 34 32 0 10 6 19 13 22 6 2 9 7 6 11
-3 4 -11 1 -16 -6z"/>
<path d="M1167 2154 c4 -10 -4 -25 -21 -40 -15 -14 -26 -19 -26 -12 0 14 -31
-27 -34 -45 -1 -7 -5 -18 -9 -24 -5 -8 -4 -13 2 -13 6 0 11 5 11 12 0 9 3 9
11 1 7 -7 9 -19 5 -28 -5 -13 -9 -15 -20 -6 -11 9 -18 8 -30 -5 -10 -9 -14
-19 -11 -22 3 -3 11 0 17 6 7 7 16 12 20 12 12 0 10 -38 -2 -45 -5 -3 -10 0
-10 7 0 7 -6 2 -13 -11 -8 -16 -23 -26 -42 -28 -30 -4 -72 -33 -47 -33 7 0 12
5 12 10 0 6 15 10 33 10 41 0 92 44 101 87 l7 31 24 -24 c13 -13 30 -24 38
-24 8 0 20 -7 27 -15 10 -12 9 -16 -4 -21 -21 -8 -20 -22 2 -20 12 1 16 -5 14
-24 -4 -46 -2 -99 5 -82 3 6 9 12 15 12 6 0 16 7 23 17 10 13 9 20 -3 34 -8
10 -16 30 -18 45 -5 43 -11 52 -50 71 -57 28 -62 42 -31 101 25 47 27 82 6 82
-4 0 -6 -7 -2 -16z m83 -299 c0 -14 -4 -25 -9 -25 -12 0 -19 21 -13 38 8 21
22 13 22 -13z"/>
<path d="M1281 1979 c6 -12 9 -39 7 -60 -2 -21 0 -35 4 -31 18 18 7 112 -14
112 -5 0 -4 -9 3 -21z"/>
<path d="M935 1980 c-4 -6 -10 -8 -15 -5 -9 6 -27 -42 -19 -49 2 -2 14 12 26
30 12 19 20 34 18 34 -2 0 -7 -5 -10 -10z"/>
<path d="M962 1965 c-12 -14 -19 -25 -15 -25 3 0 -1 -8 -10 -18 -15 -16 -15
-18 3 -18 10 0 17 3 15 6 -7 11 28 70 38 63 6 -3 7 -1 3 5 -9 16 -9 16 -34
-13z"/>
<path d="M1719 2502 c-31 -18 -52 -70 -44 -105 5 -18 2 -28 -12 -36 -10 -6
-13 -11 -7 -11 20 0 35 27 29 52 -12 46 44 114 82 102 15 -5 15 -4 3 5 -18 13
-19 13 -51 -7z"/>
<path d="M1595 2493 c4 -10 10 -27 13 -38 3 -11 10 -23 16 -27 8 -5 7 -8 -1
-8 -7 0 -13 -10 -13 -22 0 -13 -4 -29 -9 -37 -6 -9 -5 -21 2 -33 9 -14 9 -23
-1 -38 -6 -11 -13 -41 -14 -67 l-1 -48 -6 50 c-3 28 -9 46 -12 40 -10 -14 4
-86 16 -85 6 0 13 10 16 23 18 68 97 142 129 122 6 -4 10 -2 10 4 0 5 10 11
23 13 15 2 26 -4 35 -21 15 -28 16 -52 1 -31 -8 11 -9 5 -6 -25 2 -22 7 -48
11 -57 10 -23 -7 -23 -30 -1 -13 13 -16 14 -12 3 2 -8 17 -21 31 -28 21 -10
25 -17 18 -30 -5 -9 -6 -31 -4 -48 4 -26 1 -32 -19 -37 -37 -10 -73 -8 -86 5
-9 9 -12 9 -12 0 0 -34 96 -44 125 -13 14 17 16 30 10 88 -8 71 -8 223 0 232
12 11 46 -35 43 -59 -2 -18 6 -34 29 -56 l31 -31 4 59 c2 32 0 58 -4 58 -5 0
-8 4 -8 10 0 5 6 7 14 4 16 -6 16 22 -2 53 -16 29 5 44 25 18 16 -23 17 -85 1
-85 -9 0 -9 -3 0 -12 18 -18 16 -133 -3 -148 -8 -6 -19 -9 -25 -5 -5 3 -10 1
-10 -5 0 -7 -5 -6 -14 2 -8 7 -10 16 -4 19 5 3 2 12 -7 19 -13 11 -15 10 -12
-6 2 -11 10 -32 17 -49 13 -30 24 -57 34 -85 7 -16 1 18 -10 62 -5 22 -2 27
17 30 42 6 52 45 41 161 -8 90 -12 106 -35 131 -17 18 -27 24 -28 15 -1 -8 -2
-21 -3 -29 -1 -8 4 -25 11 -37 10 -17 10 -23 -1 -32 -9 -8 -12 -27 -8 -63 4
-47 3 -51 -10 -40 -15 12 -22 33 -35 112 -3 19 -16 48 -29 63 -13 16 -24 32
-24 37 0 4 -7 11 -16 14 -10 4 -2 -14 20 -44 20 -28 36 -60 36 -73 -1 -21 -2
-20 -16 6 -20 36 -31 34 -49 -9 -20 -48 -53 -44 -79 9 -24 49 -30 42 -11 -13
15 -41 14 -42 -5 -37 -15 4 -26 -2 -37 -19 -15 -23 -17 -24 -35 -7 -14 13 -17
24 -12 47 3 17 11 36 16 43 6 7 5 18 -1 30 -14 26 -24 57 -23 66 1 4 -3 7 -9
7 -7 0 -8 -7 -4 -17z"/>
<path d="M1770 2469 c0 -6 -6 -9 -13 -6 -17 6 -51 -19 -42 -32 3 -6 14 -11 23
-10 14 0 13 2 -3 9 -18 7 -19 8 -2 15 9 4 31 5 47 3 28 -4 29 -4 13 14 -19 21
-23 22 -23 7z"/>
<path d="M1571 2423 c0 -23 4 -45 9 -48 11 -7 11 16 0 60 -7 28 -8 28 -9 -12z"/>
<path d="M1870 2459 c0 -3 9 -23 20 -45 14 -29 19 -34 20 -18 0 18 -39 80 -40
63z"/>
<path d="M1558 2333 c-39 -45 -45 -138 -12 -191 21 -33 69 -27 85 11 9 21 14
25 20 15 5 -7 9 -17 9 -23 0 -5 -5 -3 -10 5 -17 26 -11 5 10 -36 12 -21 18
-29 15 -16 -10 36 4 82 25 82 24 0 51 37 42 59 -6 13 -7 12 -10 -7 -4 -24 -36
-47 -53 -36 -6 4 -8 19 -5 37 3 17 5 29 3 26 -24 -32 -37 -60 -26 -54 8 4 -5
-12 -28 -34 -23 -23 -46 -41 -52 -41 -14 0 -31 58 -31 107 0 44 13 82 34 95 6
4 8 9 5 13 -3 3 -13 -3 -21 -12z"/>
<path d="M1833 2248 c-1 -15 2 -30 8 -34 6 -3 7 -25 4 -52 -5 -35 -4 -43 4
-32 6 8 11 23 11 33 0 10 5 15 10 12 6 -4 8 -10 5 -15 -3 -5 -1 -11 4 -14 12
-8 8 18 -5 35 -17 22 -24 61 -13 80 7 14 5 17 -8 16 -12 0 -19 -10 -20 -29z"/>
<path d="M2003 2144 c7 -43 28 -64 64 -64 13 0 23 -4 23 -8 0 -15 -34 -40 -62
-47 -28 -7 -41 -34 -27 -56 5 -8 9 -36 9 -63 0 -43 -4 -53 -35 -81 -47 -45
-101 -54 -159 -26 -54 27 -83 56 -65 67 8 4 10 3 5 -4 -4 -7 -2 -12 4 -12 6 0
23 -9 38 -20 15 -10 40 -21 56 -24 35 -6 26 5 -17 19 -18 6 -31 16 -30 22 1 6
-5 10 -14 9 -13 -1 -29 23 -70 102 -1 2 -10 -1 -20 -8 -16 -10 -16 -11 0 -6
11 3 17 0 17 -10 0 -9 -5 -12 -12 -8 -7 5 -8 3 -4 -5 5 -7 11 -10 14 -7 8 9
34 -33 27 -44 -4 -6 -11 -8 -16 -4 -5 3 -6 10 -3 16 4 7 2 8 -4 4 -7 -4 -21
13 -37 43 -30 61 -32 81 -6 57 11 -10 26 -16 33 -13 10 4 10 6 1 6 -7 1 -13 6
-13 12 0 5 4 8 9 5 5 -3 11 3 14 14 6 24 -2 26 -18 3 -15 -20 -35 -9 -36 20 0
21 -1 21 -8 2 -9 -20 -9 -20 -14 0 -2 11 -3 0 -1 -25 2 -24 13 -63 24 -86 22
-44 73 -104 90 -104 6 0 10 -4 10 -9 0 -16 67 -41 112 -41 89 0 154 65 144
145 -2 22 -8 50 -11 62 -6 18 -1 24 26 36 19 8 43 24 54 36 16 19 17 24 5 31
-8 6 -23 10 -32 10 -24 0 -48 28 -48 55 0 13 -5 27 -12 31 -8 5 -9 -4 -5 -32z"/>
<path d="M1876 2119 c23 -26 42 -85 24 -74 -6 3 -10 -3 -10 -15 0 -41 -25 -14
-26 29 -2 37 0 40 15 29 14 -12 14 -11 3 4 -8 9 -20 14 -28 11 -10 -4 -11 -9
-4 -18 5 -6 7 -15 4 -18 -12 -11 -14 -111 -4 -149 12 -41 39 -62 73 -55 18 3
17 5 -6 6 -22 1 -31 9 -43 36 -7 19 -14 50 -14 69 0 29 3 33 20 29 19 -5 20
-7 5 -24 -9 -9 -15 -26 -12 -36 4 -15 5 -14 6 4 0 12 12 30 26 41 22 18 23 21
7 27 -15 6 -15 7 -1 15 22 13 4 69 -30 95 l-26 18 21 -24z"/>
<path d="M1960 2123 c0 -12 5 -25 10 -28 6 -4 8 -11 4 -16 -10 -17 29 -47 51
-39 13 4 15 9 7 14 -7 4 -16 5 -21 2 -5 -3 -18 16 -29 42 -15 32 -21 40 -22
25z"/>
<path d="M1613 2071 c3 -55 13 -59 13 -6 0 25 -4 45 -7 45 -4 0 -7 -18 -6 -39z"/>
<path d="M1815 2022 c-14 -9 -17 -55 -4 -62 5 -4 10 -25 12 -47 1 -23 4 -41 7
-40 8 3 50 -29 46 -34 -2 -2 15 -2 39 -1 29 3 50 11 62 25 18 21 18 21 -7 4
-36 -25 -82 -22 -109 7 -26 28 -54 133 -38 143 6 3 7 1 3 -5 -4 -7 -2 -12 3
-12 6 0 11 7 11 15 0 16 -9 19 -25 7z"/>
<path d="M1771 2009 c0 -9 -8 -19 -16 -23 -14 -5 -22 -36 -9 -36 15 0 35 33
31 52 -2 13 -5 16 -6 7z"/>
<path d="M1914 1959 c-11 -18 13 -34 31 -19 13 11 15 9 15 -13 0 -33 -26 -42
-59 -21 l-26 17 19 -21 c32 -36 86 -24 86 19 0 35 -50 64 -66 38z"/>
<path d="M1458 1439 l3 -200 -38 7 c-21 4 -47 8 -57 10 -11 2 -51 -4 -90 -12
-118 -26 -123 -27 -106 -15 9 6 10 11 3 11 -11 0 -17 51 -27 255 -3 50 -5 96
-6 103 0 6 -4 12 -9 12 -5 0 -11 -26 -14 -57 -2 -32 -8 -69 -12 -82 -5 -16 -5
-22 2 -18 6 4 13 -21 17 -66 11 -117 15 -137 33 -167 9 -16 21 -26 27 -23 5 4
29 6 53 6 24 -1 43 4 43 9 0 6 13 8 29 6 17 -2 28 -1 25 4 -3 4 11 8 30 8 20
0 36 -4 36 -9 0 -6 10 -7 23 -5 12 3 29 5 37 4 40 -3 62 -1 78 5 29 13 162 -6
186 -26 12 -11 36 1 36 17 0 8 -10 14 -24 14 -13 0 -53 7 -87 16 -60 15 -123
15 -161 -1 -17 -7 -18 6 -18 194 0 111 -3 201 -8 201 -4 0 -6 -90 -4 -201z"/>
<path d="M1784 1497 c2 -56 0 -139 -3 -184 -3 -45 -4 -79 -2 -77 2 2 14 -4 25
-13 19 -17 20 -17 7 -1 -7 10 -11 27 -8 38 3 11 1 20 -4 20 -11 0 0 30 18 52
10 10 11 18 4 22 -7 4 -10 46 -8 110 1 84 -1 106 -15 119 -15 15 -16 9 -14
-86z"/>
<path d="M1345 1574 c-13 -5 -7 -74 6 -74 5 0 9 7 9 16 0 14 1 14 16 0 8 -9
21 -16 27 -16 7 0 3 7 -7 15 -15 12 -17 17 -7 29 22 26 -8 45 -44 30z"/>
<path d="M1586 1551 c-9 -16 -16 -36 -15 -43 0 -7 6 0 13 16 l13 29 7 -27 c3
-14 10 -26 15 -26 8 0 -5 68 -14 78 -2 2 -11 -10 -19 -27z"/>
<path d="M1646 1540 c1 -48 6 -54 33 -45 32 10 29 62 -5 75 -14 6 -26 10 -27
10 -1 0 -2 -18 -1 -40z m39 10 c8 -13 -4 -50 -16 -50 -5 0 -9 14 -9 30 0 30
13 40 25 20z"/>
<path d="M1288 1563 c-14 -3 -18 -15 -18 -45 0 -39 1 -40 27 -33 32 8 39 13
30 21 -4 4 -13 1 -22 -6 -12 -10 -15 -10 -15 4 0 9 5 16 10 16 6 0 10 4 10 10
0 5 -7 7 -15 4 -8 -4 -15 -1 -15 5 0 6 9 11 20 11 11 0 20 5 20 10 0 10 -3 11
-32 3z"/>
<path d="M1198 1510 c5 -49 22 -53 22 -5 0 19 5 35 11 35 6 0 8 -7 5 -16 -4
-10 -1 -14 6 -12 25 9 13 33 -17 36 -30 3 -31 2 -27 -38z"/>
<path d="M1384 1385 c4 -22 3 -35 -4 -35 -5 0 -10 14 -10 30 0 19 -5 30 -14
30 -9 0 -12 -9 -8 -27 7 -39 22 -56 37 -43 6 5 14 8 16 6 2 -3 3 13 1 35 -2
21 -9 39 -14 39 -6 0 -8 -14 -4 -35z"/>
<path d="M1422 1398 c3 -15 1 -25 -3 -22 -16 10 -9 -7 12 -29 l21 -22 -7 40
c-4 22 -12 45 -17 50 -7 7 -9 1 -6 -17z"/>
<path d="M1518 1382 c-9 -23 -13 -42 -8 -42 5 0 11 6 13 13 4 9 8 9 14 0 9
-13 78 -21 89 -10 4 4 -3 7 -15 7 -20 0 -21 4 -15 35 5 27 3 35 -8 35 -10 0
-13 -10 -10 -35 5 -46 -12 -45 -29 2 l-14 37 -17 -42z"/>
<path d="M1636 1403 c-11 -11 -7 -25 5 -17 8 5 10 -3 7 -25 -3 -21 0 -31 9
-31 8 0 13 12 13 30 0 21 5 30 17 30 22 0 14 6 -18 13 -14 4 -29 4 -33 0z"/>
<path d="M1190 1390 c0 -8 -7 -27 -14 -42 -8 -16 -11 -28 -5 -28 5 0 9 5 9 10
0 6 5 10 10 10 6 0 10 -7 10 -15 0 -8 5 -15 11 -15 11 0 4 53 -12 80 -7 13 -8
13 -9 0z"/>
<path d="M1230 1355 c0 -25 5 -45 10 -45 6 0 10 4 10 10 0 5 6 7 13 5 16 -7
19 57 3 67 -26 18 -36 7 -36 -37z"/>
<path d="M1292 1361 c2 -42 16 -52 38 -27 19 23 8 61 -18 64 -21 3 -23 0 -20
-37z"/>
<path d="M1716 1391 c-4 -7 -6 -15 -2 -18 3 -3 -1 -12 -9 -20 -17 -17 -19 -33
-5 -33 6 0 10 7 10 15 0 8 5 15 10 15 6 0 10 -7 10 -15 0 -8 5 -15 10 -15 12
0 12 6 -4 49 -8 24 -15 31 -20 22z"/>
<path d="M1705 870 c-60 -22 -60 -84 0 -116 53 -30 65 -41 65 -64 0 -24 -34
-43 -61 -35 -11 4 -29 21 -40 38 l-19 32 0 -37 c0 -36 1 -37 46 -44 55 -8 91
6 104 41 14 37 -4 67 -58 95 -53 28 -68 64 -33 75 31 10 60 -3 67 -31 9 -34
22 -21 16 16 -2 17 -6 29 -9 26 -2 -2 -17 -1 -31 4 -15 4 -36 4 -47 0z"/>
<path d="M2430 870 c-49 -9 -73 -24 -114 -71 l-35 -41 -23 46 c-19 40 -20 48
-8 56 11 7 0 10 -35 10 -27 0 -45 -4 -39 -8 7 -4 28 -35 48 -69 31 -52 36 -69
30 -98 -3 -19 -14 -40 -23 -45 -12 -7 -1 -9 38 -10 52 0 53 1 38 18 -27 30
-21 82 13 124 33 40 102 78 143 78 54 0 85 -67 57 -121 -16 -29 -68 -26 -76 5
-10 40 0 70 26 83 24 12 25 13 3 13 -61 0 -83 -85 -31 -123 70 -52 157 54 101
122 -22 27 -68 39 -113 31z"/>
<path d="M353 859 c14 -8 17 -25 17 -94 0 -78 2 -85 26 -104 37 -29 89 -27
119 4 22 22 25 32 25 104 0 66 3 82 18 90 13 8 7 10 -28 10 -35 0 -41 -2 -27
-10 14 -8 17 -24 17 -85 0 -93 -10 -114 -54 -114 -43 0 -58 19 -64 80 -6 66 5
118 26 123 9 3 -8 5 -38 6 -42 0 -51 -2 -37 -10z"/>
<path d="M595 856 c17 -12 19 -25 16 -102 -2 -68 -6 -91 -19 -101 -15 -11 -11
-12 27 -13 43 0 43 1 27 19 -13 15 -16 34 -14 91 l3 73 70 -91 c39 -50 73 -91
78 -92 4 0 7 47 7 105 0 88 3 106 18 114 13 8 8 10 -27 11 -39 0 -42 -2 -27
-13 14 -10 16 -25 14 -76 l-3 -64 -60 76 c-54 70 -63 77 -94 77 -32 0 -33 -1
-16 -14z"/>
<path d="M850 863 c25 -10 30 -25 30 -105 0 -64 -4 -82 -19 -97 -19 -19 -19
-20 36 -20 52 0 54 1 34 15 -18 13 -21 25 -21 97 0 85 4 100 30 110 8 3 -12 5
-45 5 -33 0 -53 -2 -45 -5z"/>
<path d="M971 860 c9 -5 34 -57 55 -115 22 -58 41 -105 44 -105 3 0 23 45 44
101 22 56 49 107 60 115 19 13 17 14 -29 13 -28 -1 -42 -3 -32 -6 23 -6 21
-25 -6 -101 l-24 -64 -27 74 c-25 68 -25 74 -9 85 14 11 9 13 -38 13 -39 -1
-50 -3 -38 -10z"/>
<path d="M1213 859 c25 -14 25 -186 0 -204 -13 -10 2 -12 80 -14 l97 -1 0 42
-1 43 -14 -32 c-13 -30 -18 -33 -60 -33 l-45 0 0 49 c0 43 2 49 19 44 10 -3
23 -14 29 -26 9 -19 11 -14 11 28 0 39 -2 46 -10 33 -5 -10 -19 -18 -29 -18
-17 0 -20 7 -20 45 0 38 3 45 19 45 33 0 71 -19 71 -35 0 -8 5 -15 11 -15 6 0
8 7 5 16 -3 9 -6 22 -6 30 0 11 -18 14 -87 14 -65 -1 -83 -3 -70 -11z"/>
<path d="M1423 859 c14 -8 17 -25 17 -104 0 -79 -3 -96 -17 -104 -14 -8 -6
-10 36 -11 52 0 53 1 38 18 -16 17 -25 102 -11 102 20 0 48 -28 69 -70 23 -45
29 -50 58 -50 27 1 30 2 16 13 -9 7 -28 31 -42 54 -14 23 -31 44 -37 48 -8 5
-3 11 12 19 13 7 24 22 26 38 5 41 -29 58 -113 58 -52 -1 -66 -3 -52 -11z
m119 -22 c20 -32 0 -67 -39 -67 -21 0 -23 5 -23 46 0 45 1 46 27 39 15 -3 31
-12 35 -18z"/>
<path d="M1852 863 c35 -9 37 -185 2 -210 -13 -9 -5 -12 41 -12 54 0 56 1 36
15 -19 14 -21 25 -21 104 0 74 3 91 18 99 13 8 4 10 -38 10 -30 -1 -47 -3 -38
-6z"/>
<path d="M1960 833 c1 -33 2 -35 12 -18 13 25 38 45 55 45 10 0 13 -24 13 -96
0 -80 -3 -99 -17 -109 -14 -11 -9 -13 37 -13 46 0 51 2 37 13 -14 10 -17 29
-17 110 l0 97 27 -7 c16 -4 28 -7 29 -8 0 -1 5 -13 11 -27 11 -24 12 -24 12
13 l1 37 -100 0 -100 0 0 -37z"/>
<path d="M2578 863 c8 -3 12 -28 12 -73 0 -45 -4 -70 -12 -73 -7 -3 7 -5 32
-5 25 0 37 2 28 5 -13 3 -18 15 -18 39 0 37 13 44 29 17 9 -15 10 -12 11 17 0
26 -3 31 -12 22 -19 -19 -28 -14 -28 18 0 35 22 40 52 13 17 -15 18 -15 18 5
0 20 -5 22 -62 21 -35 0 -57 -3 -50 -6z"/>
<path d="M353 532 c13 -14 17 -38 17 -106 0 -81 -2 -87 -22 -96 -17 -6 -1 -9
57 -9 95 -1 125 13 125 60 0 22 -8 34 -29 47 -28 17 -29 19 -10 30 23 15 25
55 3 73 -9 8 -47 15 -87 16 -68 3 -70 3 -54 -15z m115 -40 c3 -27 -1 -34 -23
-42 -36 -14 -45 -6 -45 41 0 39 1 40 33 37 28 -3 32 -7 35 -36z m11 -76 c7 -8
11 -27 9 -42 -2 -20 -10 -30 -31 -35 -36 -10 -57 11 -57 57 0 32 2 34 34 34
18 0 39 -6 45 -14z"/>
<path d="M591 529 c15 -15 19 -33 19 -96 0 -81 -5 -96 -30 -106 -8 -3 12 -5
45 -5 33 0 53 2 45 5 -26 10 -30 25 -30 110 0 72 3 84 21 97 20 14 18 15 -34
15 -55 0 -55 -1 -36 -20z"/>
<path d="M728 534 c20 -14 22 -24 22 -97 0 -85 -4 -100 -30 -110 -8 -3 11 -6
43 -6 l57 -1 -20 20 c-27 27 -28 90 -2 90 23 0 44 -23 67 -72 14 -31 22 -38
47 -38 l30 0 -24 31 c-13 17 -35 44 -49 59 l-26 28 24 11 c20 9 24 17 21 43
-4 43 -35 58 -118 58 -61 0 -63 -1 -42 -16z m120 -39 c4 -31 -18 -55 -50 -55
-15 0 -18 8 -18 46 0 45 0 45 33 42 27 -3 32 -7 35 -33z"/>
<path d="M963 540 c14 -9 17 -26 17 -105 0 -79 -3 -96 -17 -104 -14 -8 -7 -10
32 -10 40 0 45 2 28 9 -21 9 -23 15 -23 92 l1 83 36 -93 c20 -51 39 -89 43
-85 14 16 73 163 68 168 -3 3 -16 -19 -29 -49 -12 -31 -25 -56 -28 -56 -3 0
-20 35 -36 78 -31 77 -31 77 -70 80 -32 2 -36 0 -22 -8z"/>
<path d="M1163 538 c-4 -7 -6 -54 -4 -104 3 -81 1 -93 -16 -103 -14 -8 -7 -10
37 -10 42 0 51 2 38 10 -15 8 -18 25 -18 104 0 79 3 96 18 104 14 9 12 10 -15
11 -17 0 -35 -6 -40 -12z"/>
<path d="M1283 535 c25 -18 25 -189 0 -204 -14 -8 -5 -10 37 -10 42 0 51 2 38
10 -26 15 -27 193 -1 207 12 7 1 10 -37 10 -46 0 -51 -2 -37 -13z"/>
<path d="M1418 532 c16 -16 18 -30 14 -103 -3 -61 -8 -87 -20 -96 -13 -11 -9
-13 28 -13 38 0 41 2 26 13 -14 10 -16 26 -14 90 l3 77 70 -90 c38 -50 73 -90
77 -90 4 0 8 46 8 101 0 85 3 104 18 115 15 12 12 13 -28 13 -40 0 -43 -1 -27
-13 13 -10 17 -28 17 -81 l0 -67 -63 79 c-52 65 -68 79 -95 81 -33 3 -33 3
-14 -16z"/>
<path d="M1718 527 c-52 -44 -63 -107 -29 -163 28 -47 80 -61 137 -39 42 16
44 19 44 56 0 28 4 39 15 39 8 0 15 4 15 9 0 5 -22 9 -50 9 -27 1 -50 -3 -50
-9 0 -5 6 -9 14 -9 8 0 18 -9 21 -20 23 -71 -75 -98 -110 -30 -28 55 -15 127
28 155 35 22 77 10 91 -26 14 -39 27 -37 24 4 -2 25 -9 33 -28 38 -53 14 -95
9 -122 -14z"/>
<path d="M1933 535 c25 -18 25 -189 0 -204 -14 -8 -5 -10 37 -10 42 0 51 2 38
10 -13 7 -18 23 -18 54 l0 45 55 0 55 0 0 -37 c0 -42 -7 -57 -30 -66 -8 -3 9
-6 38 -6 49 -1 52 0 38 15 -12 11 -16 36 -16 95 0 66 3 82 20 99 l20 20 -57 0
c-55 0 -56 -1 -35 -16 15 -11 22 -25 22 -50 l0 -34 -55 0 -55 0 0 36 c0 23 6
42 18 50 15 11 9 13 -38 12 -46 0 -52 -2 -37 -13z"/>
<path d="M2245 449 c-22 -56 -49 -107 -60 -115 -18 -13 -16 -14 25 -13 25 0
39 3 33 6 -14 5 -17 31 -7 57 4 11 19 16 44 16 25 0 40 -5 44 -16 11 -29 6
-52 -11 -57 -10 -3 8 -5 41 -6 56 -1 58 0 38 17 -11 9 -37 61 -58 115 -20 53
-40 97 -43 97 -3 0 -24 -46 -46 -101z m50 4 c8 -20 14 -37 13 -39 -2 -1 -15 0
-29 3 -25 5 -26 7 -16 39 6 19 12 34 14 34 1 0 10 -16 18 -37z"/>
<path d="M2433 539 c14 -8 17 -25 17 -104 0 -79 -3 -96 -17 -104 -14 -8 -9
-10 26 -11 39 0 42 2 27 13 -13 9 -18 33 -23 97 -3 47 -3 83 0 80 3 -3 20 -43
37 -90 18 -47 36 -88 39 -92 4 -5 25 34 46 85 l40 92 3 -75 c3 -67 1 -77 -19
-92 -21 -18 -20 -18 37 -17 33 0 52 3 44 6 -26 10 -30 25 -30 110 0 74 2 83
23 98 22 16 21 16 -16 13 -38 -3 -39 -4 -75 -86 l-36 -83 -34 86 -34 85 -37 0
c-29 -1 -33 -3 -18 -11z"/>
</g>
</svg>
