<?xml version="1.0" standalone="no"?>
<!DOCTYPE svg PUBLIC "-//W3C//DTD SVG 20010904//EN"
 "http://www.w3.org/TR/2001/REC-SVG-20010904/DTD/svg10.dtd">
<svg version="1.0" xmlns="http://www.w3.org/2000/svg"
 width="1280.000000pt" height="621.000000pt" viewBox="0 0 1280.000000 621.000000"
 preserveAspectRatio="xMidYMid meet">

<g transform="translate(0.000000,621.000000) scale(0.100000,-0.100000)"
fill="#000000" stroke="none">
<path d="M1967 4745 c-367 -29 -670 -55 -673 -58 -4 -3 -7 -226 -8 -494 -1
-538 5 -633 65 -942 100 -513 322 -966 650 -1323 104 -113 287 -271 412 -354
114 -75 262 -154 292 -154 49 0 305 155 460 278 91 73 286 268 356 357 327
413 513 881 586 1475 15 122 18 225 18 647 0 276 -2 503 -5 506 -3 3 -72 10
-155 16 -82 7 -285 23 -450 36 -723 58 -812 65 -845 64 -19 -1 -335 -25 -703
-54z m779 -220 c15 -15 24 -35 23 -48 -1 -12 2 -30 6 -40 5 -12 1 -25 -14 -41
-20 -21 -21 -27 -10 -102 6 -43 14 -82 17 -85 4 -3 39 -11 77 -18 39 -7 79
-14 90 -17 31 -8 88 93 80 140 -7 35 -6 36 45 94 25 28 57 28 87 0 24 -22 31
-72 12 -84 -6 -3 -8 -17 -5 -30 5 -20 1 -26 -28 -38 -38 -16 -38 -16 -76 -229
-10 -56 -25 -106 -35 -116 -101 -112 -554 -103 -630 12 -8 13 -24 74 -35 137
-28 165 -35 186 -69 200 -28 11 -41 43 -41 108 0 50 69 81 103 45 63 -68 61
-65 49 -96 -10 -27 -8 -36 12 -71 47 -79 43 -77 111 -61 33 8 74 15 91 15 31
0 31 1 38 63 4 34 10 71 12 83 4 13 -4 32 -20 51 -22 26 -24 32 -12 43 8 6 13
17 10 24 -8 21 15 66 38 76 36 14 47 12 74 -15z m-598 -997 c19 -19 15 -66 -8
-78 -27 -14 -29 -75 -2 -67 9 3 64 22 121 42 277 94 555 109 854 45 212 -46
386 -135 494 -254 55 -59 103 -146 103 -183 l0 -23 -233 0 -233 0 -38 39 c-37
38 -38 41 -29 82 12 57 1 105 -30 137 -34 34 -83 24 -138 -27 l-40 -39 -47 18
c-163 62 -470 68 -672 14 l-55 -15 3 -62 c2 -49 -2 -69 -18 -95 -27 -43 -65
-58 -96 -37 -36 23 -29 70 12 86 17 6 24 16 24 37 0 23 -4 27 -25 27 -13 -1
-34 -10 -44 -19 -12 -11 -30 -17 -44 -14 -16 3 -28 -1 -36 -14 -7 -11 -23 -18
-40 -18 -16 0 -34 -7 -41 -15 -7 -8 -27 -15 -45 -15 -20 0 -35 -6 -39 -15 -6
-17 -48 -20 -76 -5 -11 6 -24 28 -30 50 -14 54 3 94 43 98 16 2 37 12 48 23
10 10 28 19 39 19 11 0 29 9 41 21 11 11 28 19 37 17 9 -2 24 5 32 15 8 10 28
19 44 21 36 4 49 27 51 91 2 68 35 125 74 125 15 0 32 -5 39 -12z m110 -660
c18 -18 14 -46 -8 -60 -23 -14 -27 -58 -6 -58 7 0 33 7 57 15 259 92 482 106
742 49 241 -52 424 -184 471 -341 l7 -23 -193 0 -193 1 -33 29 c-30 28 -32 33
-27 82 7 61 -7 95 -46 117 -34 19 -74 8 -115 -33 l-33 -33 -68 19 c-112 33
-323 27 -475 -13 -37 -9 -38 -11 -38 -53 0 -59 -34 -110 -77 -114 -24 -2 -34
2 -43 17 -13 25 2 61 25 61 8 0 15 2 15 4 0 2 3 12 6 21 5 13 2 15 -22 9 -16
-4 -33 -11 -38 -15 -6 -5 -20 -9 -32 -9 -12 0 -27 -7 -34 -15 -7 -8 -22 -15
-34 -15 -11 0 -30 -7 -40 -15 -11 -8 -28 -13 -37 -10 -10 3 -19 -1 -23 -10 -8
-21 -52 -19 -76 5 -38 38 -18 120 29 120 10 0 24 7 31 15 7 8 20 15 30 15 10
0 23 7 30 15 7 8 23 15 35 15 13 0 25 6 28 14 3 7 18 17 33 20 38 10 53 33 54
84 0 61 23 102 58 102 16 0 33 -5 40 -12z m110 -560 c16 -16 15 -43 -3 -58
-22 -18 -20 -54 3 -45 298 115 674 81 859 -79 41 -36 83 -106 83 -139 0 -15
-16 -17 -144 -17 -130 0 -146 2 -170 21 -20 16 -25 26 -20 45 25 100 -66 157
-135 83 -19 -21 -23 -21 -81 -9 -68 14 -237 9 -310 -10 -44 -11 -45 -12 -45
-54 0 -57 -27 -96 -65 -96 -39 0 -52 36 -21 61 11 9 21 22 21 27 0 16 -28 22
-39 8 -10 -12 -48 -25 -86 -31 -5 -1 -31 -12 -58 -24 -43 -21 -49 -22 -71 -8
-26 17 -38 56 -24 80 8 15 125 77 145 77 6 0 16 7 23 15 7 9 19 14 26 11 16
-6 26 19 28 65 3 67 51 110 84 77z"/>
<path d="M2530 4004 c-49 -9 -111 -36 -107 -48 11 -34 119 -56 277 -56 227 0
349 46 235 88 -39 15 -346 27 -405 16z"/>
<path d="M6720 4572 l0 -208 -112 1 c-102 0 -119 -3 -169 -26 -154 -72 -231
-222 -232 -449 0 -214 76 -356 228 -427 104 -48 320 -44 441 7 l44 19 0 646 0
645 -100 0 -100 0 0 -208z m-31 -328 l31 -6 0 -329 c0 -376 7 -349 -95 -349
-153 0 -221 108 -219 350 1 104 5 135 24 185 45 118 140 172 259 149z"/>
<path d="M7620 4570 l0 -210 -89 7 c-199 14 -332 -76 -402 -273 -29 -83 -37
-255 -15 -347 33 -140 115 -246 223 -288 111 -43 319 -37 436 13 l47 21 -2
641 -3 641 -97 3 -98 3 0 -211z m-31 -326 l31 -6 0 -329 0 -329 -26 -10 c-36
-14 -119 -12 -157 4 -45 18 -91 75 -113 138 -29 81 -26 312 4 389 45 112 143
166 261 143z"/>
<path d="M8050 4110 l0 -671 98 3 97 3 0 665 0 665 -97 3 -98 3 0 -671z"/>
<path d="M5844 4686 c-38 -38 -43 -70 -19 -116 20 -38 43 -50 97 -50 101 1
143 110 67 174 -46 39 -101 36 -145 -8z"/>
<path d="M4616 4578 c-3 -18 -24 -208 -47 -423 -22 -214 -49 -460 -58 -545
-10 -85 -16 -158 -14 -162 2 -5 42 -8 89 -8 60 0 84 3 84 13 0 6 14 154 30
327 17 173 33 364 37 423 3 59 10 110 15 113 4 3 8 -1 8 -8 0 -14 114 -444
191 -721 l42 -148 60 3 60 3 44 160 c25 88 80 288 122 443 l78 284 7 -94 c4
-51 21 -250 39 -443 l33 -350 97 -3 c90 -3 97 -1 97 16 0 11 -13 140 -30 288
-50 461 -90 834 -90 849 0 12 -20 15 -110 15 -84 0 -110 -3 -110 -13 0 -7 -47
-183 -105 -391 -58 -208 -108 -395 -111 -417 -4 -21 -9 -39 -13 -39 -3 0 -27
85 -53 188 -26 103 -73 279 -103 392 -31 113 -60 222 -66 243 l-10 37 -104 0
-104 0 -5 -32z"/>
<path d="M8739 4370 c-155 -27 -255 -138 -293 -324 -41 -197 7 -411 115 -516
23 -22 66 -52 97 -67 54 -27 64 -28 197 -28 120 0 148 3 199 22 33 13 64 27
68 31 7 7 -24 113 -37 129 -1 2 -27 -6 -58 -17 -163 -57 -308 -24 -364 84 -20
38 -44 134 -35 140 6 3 194 32 442 69 l85 12 3 58 c4 74 -29 207 -66 267 -32
52 -108 113 -160 128 -56 16 -141 21 -193 12z m124 -134 c66 -28 107 -104 107
-197 0 -27 -1 -49 -2 -50 -93 -19 -350 -53 -355 -46 -9 16 7 127 28 182 22 58
48 87 99 109 44 19 82 20 123 2z"/>
<path d="M9523 4370 c-132 -27 -212 -125 -213 -261 0 -121 55 -191 202 -258
73 -33 107 -66 117 -113 16 -72 -21 -139 -86 -157 -41 -12 -128 1 -173 24 -18
9 -34 15 -36 12 -2 -2 -15 -30 -28 -63 l-25 -59 62 -30 c57 -28 70 -30 172
-30 100 0 115 2 167 28 108 53 165 153 156 271 -9 111 -60 171 -206 242 -102
50 -132 82 -132 142 0 106 101 152 217 98 l51 -24 22 59 c13 33 21 61 19 63
-19 17 -96 46 -144 55 -66 12 -82 12 -142 1z"/>
<path d="M10270 4367 c-193 -43 -300 -228 -287 -497 9 -179 66 -305 170 -377
69 -47 133 -63 251 -63 99 0 165 12 238 43 l37 16 -21 63 c-11 35 -22 65 -24
66 -1 2 -29 -6 -61 -19 -86 -33 -221 -33 -280 0 -24 14 -54 41 -67 62 -29 44
-62 148 -50 159 5 5 106 23 224 40 118 17 235 35 260 39 44 6 45 8 48 44 9
103 -40 260 -102 334 -63 75 -217 116 -336 90z m169 -144 c41 -31 71 -94 78
-167 7 -76 28 -65 -182 -96 -77 -12 -149 -24 -159 -27 -18 -5 -19 -1 -13 72
11 124 67 218 142 238 37 10 107 -1 134 -20z"/>
<path d="M5820 3900 l0 -460 100 0 100 0 0 460 0 460 -100 0 -100 0 0 -460z"/>
<path d="M10813 4353 c113 -203 218 -395 227 -414 11 -24 1 -44 -119 -253 -72
-125 -131 -232 -131 -237 0 -6 40 -9 98 -7 l97 3 80 157 c44 86 83 160 87 163
4 4 43 -67 87 -159 l80 -166 105 0 c78 0 106 3 106 13 0 6 -59 114 -130 240
-72 125 -130 232 -130 237 0 6 54 102 120 215 66 112 120 206 120 209 0 3 -42
6 -92 6 l-93 0 -75 -145 c-41 -80 -77 -145 -80 -145 -3 0 -38 65 -78 145 l-72
145 -106 0 c-58 0 -103 -3 -101 -7z"/>
<path d="M6464 3069 c-25 -13 -54 -60 -54 -89 0 -29 26 -77 49 -90 11 -5 37
-10 58 -10 96 1 136 112 62 174 -32 27 -77 33 -115 15z"/>
<path d="M9804 3071 c-57 -25 -71 -111 -26 -161 21 -25 36 -31 71 -33 37 -1
47 3 72 31 58 65 27 159 -56 167 -22 3 -49 1 -61 -4z"/>
<path d="M10380 2969 c-14 -4 -58 -17 -97 -29 l-73 -21 0 -99 0 -100 -45 0
-45 0 0 -68 0 -67 44 3 45 4 3 -314 c3 -337 6 -358 61 -416 53 -57 175 -88
251 -62 l36 12 0 65 0 65 -26 -6 c-14 -4 -41 -2 -59 4 -56 19 -60 40 -60 360
l0 285 70 0 70 1 3 67 3 67 -75 0 -75 0 -3 128 -3 129 -25 -8z"/>
<path d="M4532 2513 c4 -511 3 -501 76 -598 29 -38 56 -59 116 -90 76 -39 81
-40 175 -39 181 2 292 71 357 224 17 42 19 79 22 503 l3 457 -100 0 -101 0 0
-443 0 -444 -23 -43 c-71 -134 -266 -110 -307 38 -6 23 -10 201 -10 465 l0
427 -106 0 -105 0 3 -457z"/>
<path d="M5715 2729 c-38 -4 -101 -19 -140 -31 l-70 -24 0 -434 0 -435 95 0
95 0 5 390 5 389 25 7 c14 4 57 7 95 8 54 1 78 -4 103 -19 60 -37 62 -52 62
-435 l0 -345 100 0 100 0 0 355 c0 330 -1 358 -20 408 -37 98 -116 148 -262
167 -91 11 -92 11 -193 -1z"/>
<path d="M7902 2729 c-194 -33 -302 -200 -302 -466 0 -292 124 -451 372 -477
70 -7 179 7 255 34 31 11 58 22 61 25 5 5 -10 62 -29 112 l-8 23 -52 -20 c-65
-26 -189 -36 -247 -21 -80 22 -142 101 -158 202 -4 21 -5 39 -3 40 2 0 123 19
269 43 l265 42 -3 64 c-7 153 -46 255 -124 325 -72 65 -186 93 -296 74z m149
-145 c14 -7 34 -24 43 -38 21 -33 48 -139 44 -173 -3 -26 -5 -27 -143 -48 -77
-12 -157 -25 -177 -29 l-38 -7 0 59 c0 118 59 229 134 251 36 11 100 4 137
-15z"/>
<path d="M9253 2730 c-91 -19 -154 -65 -196 -144 -28 -52 -30 -183 -5 -232 27
-50 93 -102 184 -145 95 -45 124 -78 124 -142 0 -119 -121 -168 -258 -104 -23
11 -44 18 -46 16 -6 -9 -46 -113 -46 -121 0 -5 26 -21 58 -36 75 -34 223 -43
300 -18 123 41 197 142 196 267 -2 120 -59 196 -196 258 -86 39 -125 74 -138
121 -12 45 3 92 40 125 31 28 120 27 178 -1 23 -12 44 -19 47 -15 2 4 13 30
24 59 l21 52 -23 14 c-61 39 -190 61 -264 46z"/>
<path d="M8661 2719 c-79 -15 -142 -41 -149 -59 -4 -11 -6 -208 -4 -439 l2
-421 100 0 100 0 0 390 0 390 28 7 c32 8 85 9 126 3 32 -5 28 -12 59 113 l7
27 -112 -1 c-62 -1 -133 -5 -157 -10z"/>
<path d="M6410 2260 l0 -460 100 0 100 0 -2 458 -3 457 -97 3 -98 3 0 -461z"/>
<path d="M6760 2707 c0 -8 9 -40 19 -73 11 -32 65 -205 121 -384 55 -179 110
-353 121 -388 l21 -63 95 3 95 3 139 450 c76 248 138 453 139 458 0 4 -42 7
-93 7 l-94 0 -15 -62 c-9 -35 -48 -182 -87 -328 -39 -146 -71 -276 -71 -290
-1 -14 -25 67 -54 180 -29 113 -70 271 -91 353 l-39 147 -103 0 c-79 0 -103
-3 -103 -13z"/>
<path d="M9749 2716 c-2 -2 -3 -209 -1 -460 l2 -456 95 0 95 0 0 460 0 460
-93 0 c-52 0 -96 -2 -98 -4z"/>
<path d="M10653 2708 c2 -7 25 -78 50 -158 25 -80 88 -281 141 -446 l95 -302
-69 -177 c-39 -97 -70 -178 -70 -181 0 -2 47 -4 104 -4 l104 0 21 63 c11 34
99 314 195 622 96 308 178 568 181 578 7 15 -1 17 -88 17 -82 0 -95 -2 -100
-17 -50 -177 -126 -457 -153 -558 -18 -71 -33 -119 -34 -105 0 14 -38 171 -84
350 l-83 325 -108 3 c-84 2 -106 0 -102 -10z"/>
</g>
</svg>
