<?xml version="1.0" standalone="no"?>
<!DOCTYPE svg PUBLIC "-//W3C//DTD SVG 20010904//EN"
 "http://www.w3.org/TR/2001/REC-SVG-20010904/DTD/svg10.dtd">
<svg version="1.0" xmlns="http://www.w3.org/2000/svg"
 width="300.000000pt" height="394.000000pt" viewBox="0 0 300.000000 394.000000"
 preserveAspectRatio="xMidYMid meet">
<metadata>
Created by potrace 1.10, written by Peter Selinger 2001-2011
</metadata>
<g transform="translate(0.000000,394.000000) scale(0.100000,-0.100000)"
fill="#000000" stroke="none">
<path d="M238 3573 c-2 -71 -2 -130 -1 -132 2 -2 38 29 80 70 91 87 174 144
246 170 l52 18 -187 1 -187 0 -3 -127z m192 83 c0 -12 -141 -117 -150 -111
-11 7 -14 98 -3 108 7 7 153 10 153 3z"/>
<path d="M755 3667 c25 -25 35 -46 41 -83 10 -68 -11 -262 -47 -435 -16 -79
-44 -209 -60 -289 -40 -188 -46 -354 -14 -376 32 -21 95 16 187 109 194 196
349 516 416 859 l27 136 165 55 165 55 -456 1 -457 1 33 -33z m575 -6 c62 -7
64 -8 37 -19 -16 -7 -34 -12 -41 -12 -24 0 -55 -40 -61 -77 -10 -66 -73 -315
-98 -388 -71 -204 -202 -421 -334 -552 -79 -79 -119 -103 -143 -88 -15 9 -7
136 16 251 8 44 17 95 20 114 3 19 8 38 10 42 2 3 23 98 45 210 36 177 42 220
42 338 0 74 -1 144 -4 155 -4 18 3 21 71 26 107 8 363 8 440 0z"/>
<path d="M1706 3683 c-9 -30 -84 -421 -105 -548 -64 -377 -84 -595 -59 -629
23 -29 61 -13 126 53 l58 59 33 -30 33 -29 -38 -46 c-176 -215 -382 -364 -508
-367 -103 -2 -136 41 -136 174 0 89 18 229 54 410 23 114 23 114 2 86 -112
-155 -317 -375 -451 -483 -105 -85 -214 -149 -298 -174 -81 -25 -128 -20 -165
19 l-25 27 6 -25 c4 -14 7 -253 7 -532 l0 -508 765 0 765 0 -39 35 c-79 71
-111 214 -91 409 33 334 162 619 369 819 240 231 547 348 731 278 l50 -19 0
519 0 519 -539 0 c-505 0 -540 -1 -545 -17z m1052 -497 l-3 -461 -30 1 c-16 1
-61 4 -98 7 -190 14 -488 -137 -684 -346 -99 -106 -161 -206 -228 -367 -117
-279 -147 -622 -69 -783 13 -28 22 -52 20 -54 -6 -7 -1377 -4 -1387 3 -10 6
-13 892 -3 917 4 10 19 13 56 11 52 -2 162 30 218 64 166 101 298 216 513 449
31 34 57 60 57 58 0 -2 -10 -65 -21 -142 -39 -246 -27 -351 44 -404 44 -33
140 -33 212 0 64 30 175 102 222 143 57 51 169 169 202 213 38 50 39 74 4 107
-50 46 -66 45 -127 -12 -91 -82 -103 -68 -86 97 16 159 79 569 96 625 3 10 7
30 10 45 10 62 54 272 60 287 5 14 56 16 503 18 274 2 502 -1 509 -6 9 -7 12
-108 10 -470z"/>
<path d="M277 3323 l-36 -28 -1 -340 c0 -187 -2 -378 -5 -425 -6 -114 2 -82
64 240 74 385 88 532 55 564 -22 22 -35 20 -77 -11z m59 -47 c11 -45 -38 -386
-56 -386 -5 0 -9 82 -10 182 0 147 3 186 15 205 20 30 43 29 51 -1z"/>
<path d="M2292 2455 c-114 -103 -203 -431 -206 -755 -1 -139 1 -159 20 -194
27 -52 62 -77 117 -83 98 -11 222 61 370 217 l89 93 39 -40 40 -39 -64 -75
c-168 -195 -356 -342 -527 -412 l-65 -26 343 -1 342 0 0 626 0 626 -27 -18
c-60 -39 -158 -94 -169 -94 -6 0 -24 19 -39 42 -38 58 -114 137 -147 154 -44
23 -75 17 -116 -21z m154 -57 c28 -29 65 -72 83 -96 45 -58 65 -61 149 -18 59
30 71 33 76 20 9 -23 7 -584 -1 -584 -5 1 -19 7 -33 15 -14 8 -33 14 -43 15
-10 0 -55 -37 -100 -82 -46 -46 -98 -94 -116 -108 -18 -14 -39 -31 -47 -38 -7
-7 -39 -24 -71 -39 -160 -71 -235 -3 -228 211 11 391 131 756 249 756 25 0 42
-11 82 -52z m314 -1005 c0 -104 -4 -194 -8 -201 -7 -9 -60 -12 -232 -10 l-224
3 99 70 c62 43 148 119 225 197 69 69 128 127 133 127 4 1 7 -83 7 -186z"/>
<path d="M240 983 c0 -7 10 -13 21 -13 21 0 21 -3 15 -57 -21 -192 -21 -209 6
-236 47 -47 142 -48 198 -1 33 28 43 58 60 185 13 97 17 106 45 109 57 6 65 1
90 -57 43 -95 43 -92 -25 -171 -34 -38 -72 -73 -86 -76 -13 -4 -24 -10 -24
-14 0 -9 128 -8 137 1 3 4 2 7 -3 7 -5 0 -15 4 -23 9 -11 7 -6 20 25 65 22 31
42 56 45 56 3 0 13 -25 23 -56 15 -47 16 -58 4 -65 -7 -5 -16 -9 -20 -9 -5 0
-8 -3 -8 -7 0 -5 87 -8 193 -7 206 1 237 8 271 56 34 48 12 128 -34 128 -10 0
-22 5 -25 10 -3 6 3 10 13 10 36 0 64 32 64 75 0 62 -10 65 -221 65 -161 -1
-184 -3 -168 -15 18 -13 17 -16 -16 -65 l-35 -51 -16 47 c-20 60 -20 61 4 67
11 3 20 9 20 14 0 10 -310 7 -310 -4 -1 -4 8 -9 20 -11 19 -3 20 -10 20 -108
0 -151 -23 -194 -103 -194 -69 0 -86 60 -56 210 16 83 19 90 39 90 10 0 21 4
25 9 3 6 -31 11 -80 13 -63 2 -85 0 -85 -9z m726 -13 c16 0 15 -3 -13 -192
-14 -98 -17 -107 -39 -112 -48 -12 -71 3 -97 62 -54 121 -55 108 10 175 60 61
88 79 111 71 8 -2 20 -4 28 -4z m148 -6 c22 -8 21 -72 -1 -96 -9 -11 -30 -18
-50 -18 -33 0 -34 1 -29 30 3 17 9 44 12 60 6 31 29 39 68 24z m-4 -154 c26
-26 26 -80 -1 -114 -16 -20 -29 -26 -60 -26 l-40 0 6 58 c11 98 12 102 45 102
17 0 39 -9 50 -20z"/>
<path d="M1682 992 c-49 -2 -80 -7 -77 -12 4 -6 15 -10 26 -10 23 0 23 1 -8
-197 -15 -100 -16 -102 -45 -108 -38 -9 -65 15 -107 94 l-30 58 35 16 c63 31
79 118 25 146 -25 14 -241 15 -241 1 0 -5 11 -10 25 -10 21 0 24 -4 20 -27 -2
-16 -12 -81 -21 -146 -15 -107 -19 -120 -40 -129 -13 -6 -24 -14 -24 -17 0 -8
159 -6 167 2 3 3 -6 9 -21 13 -28 7 -30 14 -20 88 9 63 27 59 64 -14 50 -100
50 -100 191 -95 126 4 151 9 105 21 -26 6 -27 8 -21 63 4 31 13 94 21 141 8
47 14 88 14 93 0 4 9 7 19 7 17 0 40 18 30 23 -2 1 -41 1 -87 -1z m-241 -32
c13 -8 19 -21 19 -48 0 -53 -23 -82 -66 -82 -39 0 -41 7 -23 90 11 53 27 62
70 40z"/>
<path d="M2322 991 c-94 -24 -162 -118 -162 -223 0 -50 4 -62 29 -90 27 -31
34 -33 93 -33 37 0 83 8 110 18 46 18 48 20 54 68 5 38 11 49 25 49 10 0 21 5
24 10 4 6 -23 10 -75 10 -52 0 -79 -4 -75 -10 3 -5 15 -10 25 -10 16 0 18 -6
14 -37 -8 -57 -10 -60 -41 -66 -64 -12 -113 37 -113 113 0 53 30 128 62 155
40 33 98 32 113 -2 5 -13 15 -23 20 -23 27 0 48 51 26 64 -17 11 -96 15 -129
7z"/>
<path d="M1790 980 c0 -5 9 -10 20 -10 25 0 26 -27 5 -160 -21 -135 -22 -137
-50 -144 -54 -14 -19 -21 95 -19 136 1 180 17 225 83 62 89 59 212 -6 245 -33
18 -289 22 -289 5z m231 -39 c27 -27 29 -35 29 -101 0 -121 -39 -170 -135
-170 -44 0 -45 1 -45 33 0 35 27 221 36 250 9 30 80 23 115 -12z"/>
<path d="M2530 980 c0 -5 9 -10 20 -10 25 0 26 -27 5 -160 -21 -135 -22 -137
-50 -144 -56 -14 -18 -21 111 -19 75 1 140 5 144 10 11 12 30 73 23 73 -3 0
-16 -11 -29 -25 -14 -16 -34 -25 -52 -25 -16 0 -44 -3 -61 -6 -29 -6 -31 -5
-31 23 0 17 3 50 6 74 l6 44 44 -4 c39 -3 44 -6 44 -27 0 -38 17 -28 25 14 3
20 9 47 12 60 6 27 -13 30 -20 3 -3 -14 -16 -20 -52 -23 l-47 -3 6 51 c9 76
12 81 49 77 65 -8 77 -13 77 -33 0 -31 17 -23 24 11 3 17 6 35 6 40 0 5 -58 9
-130 9 -80 0 -130 -4 -130 -10z"/>
<path d="M320 501 c-19 -10 -48 -37 -65 -60 -24 -35 -29 -52 -30 -102 0 -54 3
-63 28 -85 21 -18 40 -24 73 -24 50 0 114 23 114 41 0 7 -6 8 -17 3 -10 -4
-36 -9 -58 -12 -31 -3 -45 1 -59 17 -34 38 -22 152 21 195 32 32 67 33 87 4
15 -21 17 -21 32 -6 9 9 14 24 11 32 -9 23 -93 21 -137 -3z"/>
<path d="M692 503 c-90 -44 -129 -185 -69 -250 25 -28 101 -32 147 -8 90 47
128 203 63 255 -32 25 -95 26 -141 3z m92 -25 c20 -28 21 -127 2 -173 -24 -56
-82 -73 -110 -33 -18 25 -22 122 -6 162 23 63 85 86 114 44z"/>
<path d="M1030 510 c0 -5 9 -10 20 -10 18 0 20 -5 16 -32 -3 -18 -10 -67 -16
-108 -13 -95 -18 -110 -35 -110 -8 0 -17 -4 -20 -10 -4 -6 35 -10 110 -10
l116 0 14 33 c17 40 11 47 -15 19 -14 -14 -33 -22 -55 -22 -18 0 -41 -3 -51
-7 -16 -6 -17 0 -11 69 10 122 25 178 48 178 10 0 19 5 19 10 0 6 -30 10 -70
10 -40 0 -70 -4 -70 -10z"/>
<path d="M1400 509 c0 -5 10 -9 21 -9 20 0 21 -4 15 -52 -20 -161 -28 -198
-47 -198 -10 0 -21 -4 -24 -10 -4 -6 36 -10 113 -10 l120 0 11 32 c14 40 8 45
-18 19 -12 -12 -33 -21 -48 -21 -16 0 -38 -3 -50 -6 -28 -8 -29 0 -7 142 14
88 19 104 35 104 10 0 20 4 24 9 3 6 -25 10 -70 10 -41 0 -75 -4 -75 -10z"/>
<path d="M1770 509 c0 -5 7 -9 16 -9 15 0 16 -9 11 -73 -10 -120 -25 -174 -50
-183 -14 -5 19 -9 92 -11 63 -2 118 0 122 4 4 4 11 22 15 38 l7 30 -24 -21
c-15 -14 -44 -24 -78 -27 -51 -6 -53 -6 -47 16 3 12 6 39 6 60 0 36 1 37 36
37 27 0 37 -5 41 -20 7 -25 23 -26 23 -1 0 10 2 34 5 52 5 31 4 32 -6 12 -9
-18 -21 -23 -52 -23 l-39 0 6 38 c13 68 13 68 57 64 30 -3 43 -9 46 -23 6 -21
23 -26 23 -6 0 6 3 22 6 34 6 23 6 23 -105 22 -61 0 -111 -5 -111 -10z"/>
<path d="M2240 509 c-94 -38 -146 -193 -85 -254 29 -30 96 -34 168 -9 45 15
47 18 47 54 0 30 4 39 23 45 19 7 17 9 -16 12 -20 2 -52 2 -70 0 -30 -4 -31
-4 -9 -12 20 -7 23 -13 18 -38 -3 -16 -6 -33 -6 -38 0 -11 -70 -12 -86 -1 -49
32 -42 151 12 206 32 32 77 35 97 6 18 -26 49 -16 45 14 -3 18 -10 21 -58 23
-30 1 -66 -2 -80 -8z"/>
<path d="M2550 509 c0 -5 10 -9 21 -9 20 0 21 -3 15 -62 -16 -142 -27 -188
-47 -188 -10 0 -19 -4 -19 -10 0 -6 45 -10 114 -10 l114 0 11 32 c14 39 7 47
-16 20 -12 -13 -35 -22 -72 -26 l-54 -5 7 46 c3 25 6 52 6 59 0 8 10 14 24 14
35 0 56 -10 56 -26 0 -8 5 -14 10 -14 6 0 10 12 10 28 0 15 3 38 6 52 l5 25
-17 -22 c-12 -17 -27 -23 -54 -23 l-38 0 12 51 c6 27 14 50 19 50 4 -1 23 -1
43 -1 27 0 37 -5 41 -20 7 -28 23 -14 23 20 l0 30 -110 -1 c-61 0 -110 -4
-110 -10z"/>
</g>
</svg>
